<svg xmlns="http://www.w3.org/2000/svg" viewBox="0 0 500 500"><defs><clipPath id="freepik--clip-path--inject-158"><path d="M197.46 117.3c-.34 13.44-1.5 31-5.1 38.5-7.14 14.92-28 23.21-29 12.17 0-.35-.05-.7-.06-1.06-.16-11.15 11.78-29.29 15.19-46.5 3.51-17.75 8-21.42 19-20.5.02 0 .21 7.61-.03 17.39z" fill="#fff"/></clipPath><clipPath id="freepik--clip-path-2--inject-158"><path d="M197.51 99.91s37.41-1.37 44.23 4.52c19.06 16.45-8.69 35.28-4.91 78.23l-47.83-7.6s11.86-18.13 1.59-43c-6.19-15.06-2.7-29.22 6.92-32.15z" fill="#ff0"/></clipPath><clipPath id="freepik--clip-path-3--inject-158"><path d="M230.63 277.5s-3 84.31-2.11 142.5a56.14 56.14 0 002.75 16.75c2.13 6.47 8.76 10.91 16.18 10.91h86.93a16.83 16.83 0 0013.69-6.66c4.15-5.74 8.85-14.52 7.37-23.43-2.54-15.18-124.81-140.07-124.81-140.07z" fill="#ff0"/></clipPath><clipPath id="freepik--clip-path-4--inject-158"><path d="M181.25 203.67c-.19 1.42-.46 2.87-.8 4.36-5 22.1-11.06 36.16-11.06 36.16s1.89 14.06-16.57 14.32-22.53-20.4-16.58-40.68c0 0 3.52-18.74 11.3-31.08 3.08-4.91 6.84-8.8 11.31-10.12 14.67-4.32 25.15 7.5 22.4 27.04z" fill="#757575"/></clipPath><clipPath id="freepik--clip-path-5--inject-158"><path d="M164.37 191.45c16.34-39.17 16.08-73.59 30.39-91.68 0 0 3.45-1 5.87 0 0 0-9.84 15.33-13.13 27.89s-9.82 49-18.11 65.05" fill="#757575"/></clipPath><clipPath id="freepik--clip-path-6--inject-158"><path d="M169.31 173.55a9.54 9.54 0 01-1.64-.14 5.57 5.57 0 01-4.8-5.39c0-.37-.05-.73-.06-1.1-.09-6 3.31-14.08 6.9-22.62 3.3-7.84 6.71-15.94 8.3-24 3.4-17.2 7.78-21.89 19.54-20.9a.5.5 0 01.46.49c0 .07.19 7.73 0 17.41-.34 13.46-1.51 31.1-5.15 38.71-5 10.36-16.33 17.54-23.55 17.54zm25.2-73.28c-8.08 0-12.27 3.79-15.52 20.24-1.61 8.14-5 16.3-8.36 24.18-3.55 8.44-6.9 16.41-6.82 22.21 0 .35 0 .69.06 1a4.52 4.52 0 004 4.49c6.62 1.19 19-6.34 24.06-16.84 3.56-7.44 4.71-24.93 5.05-38.29.2-8.32.1-15.14.06-16.92-.89-.03-1.73-.07-2.53-.07zm3 17z" fill="#263238" clip-path="url(#freepik--clip-path--inject-158)"/></clipPath><clipPath id="freepik--clip-path-7--inject-158"><path d="M236.83 183.16h-.08L189 175.55a.52.52 0 01-.38-.29.51.51 0 010-.48c.12-.18 11.59-18.21 1.55-42.49-3.81-9.2-4.2-18.67-1.06-25.33a13.51 13.51 0 018.25-7.53h.13c1.54-.06 37.69-1.31 44.58 4.64 10.47 9 7.13 18.85 2.5 32.42-4 11.74-9 26.34-7.25 46.15a.49.49 0 01-.15.41.55.55 0 01-.34.11zm-47-8.48l46.42 7.39c-1.59-19.69 3.36-34.22 7.35-45.92 4.67-13.69 7.76-22.74-2.2-31.35-6.46-5.57-42.06-4.46-43.83-4.4a12.58 12.58 0 00-7.57 7c-3 6.41-2.63 15.57 1.07 24.52 9.19 22.17.74 39.27-1.22 42.76z" fill="#263238" clip-path="url(#freepik--clip-path-2--inject-158)"/></clipPath><clipPath id="freepik--clip-path-8--inject-158"><path d="M334.38 448.16h-86.93c-7.62 0-14.47-4.62-16.65-11.25A56.41 56.41 0 01228 420c-.85-57.53 2.08-141.68 2.11-142.52a.5.5 0 01.86-.33c5 5.1 122.41 125.18 124.94 140.38 1.51 9.06-3.22 18-7.46 23.81a17.28 17.28 0 01-14.07 6.82zM231.09 278.68c-.35 10.4-2.87 87.5-2.07 141.31a55.47 55.47 0 002.73 16.61c2 6.22 8.5 10.56 15.7 10.56h86.93a16.26 16.26 0 0013.28-6.41c4.12-5.7 8.73-14.34 7.28-23.06-2.37-14.24-113.17-128.06-123.85-139.01z" fill="#263238" clip-path="url(#freepik--clip-path-3--inject-158)"/></clipPath><clipPath id="freepik--clip-path-9--inject-158"><path d="M152.48 259c-6.14 0-11-2.25-14.33-6.69-5.58-7.35-6.5-20.62-2.39-34.63 0-.14 3.62-18.93 11.36-31.21 3.53-5.62 7.43-9.1 11.59-10.33 6.29-1.85 12.12-.83 16.41 2.87 5.72 4.93 8.13 13.94 6.63 24.72-.19 1.4-.46 2.84-.81 4.4a235.52 235.52 0 01-11 36.12 13.2 13.2 0 01-3 9.54c-2.9 3.37-7.63 5.12-14.07 5.21zm12.19-82.76a20 20 0 00-5.68.86c-3.92 1.16-7.63 4.49-11 9.91-7.64 12.11-11.19 30.72-11.23 30.9-4 13.76-3.18 26.69 2.22 33.8 3.23 4.25 7.87 6.38 13.86 6.29s10.63-1.72 13.34-4.86a12.33 12.33 0 002.74-8.89.63.63 0 010-.27c.06-.14 6.07-14.28 11-36.07.35-1.53.61-2.94.79-4.32 1.46-10.44-.83-19.12-6.28-23.82a14.69 14.69 0 00-9.76-3.52z" fill="#263238" clip-path="url(#freepik--clip-path-4--inject-158)"/></clipPath><clipPath id="freepik--clip-path-10--inject-158"><path d="M169.39 193.21a.46.46 0 01-.22-.06.49.49 0 01-.22-.67c6.21-12 11.54-36.06 15.06-51.95 1.18-5.31 2.2-9.89 3-13 2.93-11.17 11.09-24.66 12.85-27.49a10.44 10.44 0 00-4.82.17c-7.64 9.75-11.16 24.62-15.24 41.81-3.52 14.87-7.51 31.72-15 49.62a.5.5 0 01-.92-.38c7.44-17.83 11.42-34.64 14.93-49.47 4.12-17.39 7.68-32.4 15.53-42.33a.49.49 0 01.25-.17c.15 0 3.65-1.06 6.2 0a.51.51 0 01.23.73c-.1.15-9.83 15.41-13.06 27.75-.81 3.08-1.83 7.66-3 13-3.54 15.94-8.88 40-15.15 52.19a.5.5 0 01-.42.25z" fill="#263238" clip-path="url(#freepik--clip-path-5--inject-158)"/></clipPath></defs><g id="freepik--Character--inject-158"><path d="M169.13 199.15s18.07-18.4 23.09-61.91h3.36s-5.11 48.38-22.86 66.87" fill="#757575"/><path d="M172.72 204.61a.49.49 0 01-.34-.14.5.5 0 010-.71c16.41-17.1 22-60.61 22.66-66h-2.35c-5.06 42.87-23 61.58-23.18 61.76a.5.5 0 11-.71-.7c.18-.18 18-18.81 22.94-61.62a.51.51 0 01.5-.44h3.36a.51.51 0 01.37.16.56.56 0 01.13.39c-.06.49-5.34 48.76-23 67.17a.51.51 0 01-.38.13z" fill="#263238"/><path d="M197.46 117.3c-.34 13.44-1.5 31-5.1 38.5-7.14 14.92-28 23.21-29 12.17 0-.35-.05-.7-.06-1.06-.16-11.15 11.78-29.29 15.19-46.5 3.51-17.75 8-21.42 19-20.5.02 0 .21 7.61-.03 17.39z" fill="#fff"/><path d="M169.31 173.55a9.54 9.54 0 01-1.64-.14 5.57 5.57 0 01-4.8-5.39c0-.37-.05-.73-.06-1.1-.09-6 3.31-14.08 6.9-22.62 3.3-7.84 6.71-15.94 8.3-24 3.4-17.2 7.78-21.89 19.54-20.9a.5.5 0 01.46.49c0 .07.19 7.73 0 17.41-.34 13.46-1.51 31.1-5.15 38.71-5 10.36-16.33 17.54-23.55 17.54zm25.2-73.28c-8.08 0-12.27 3.79-15.52 20.24-1.61 8.14-5 16.3-8.36 24.18-3.55 8.44-6.9 16.41-6.82 22.21 0 .35 0 .69.06 1a4.52 4.52 0 004 4.49c6.62 1.19 19-6.34 24.06-16.84 3.56-7.44 4.71-24.93 5.05-38.29.2-8.32.1-15.14.06-16.92-.89-.03-1.73-.07-2.53-.07zm3 17z" fill="#263238"/><g clip-path="url(#freepik--clip-path-6--inject-158)"><path d="M197.46 117.3c-.34 13.44-1.5 31-5.1 38.5-7.14 14.92-28 23.21-29 12.17 0-.35-.05-.7-.06-1.06 18.38-9.12 25.16-46.68 25.16-46.68z" fill="#ff0" opacity=".4"/></g><path d="M180.45 162.78a.5.5 0 01-.36-.85c0-.05 5.38-5.52 5.38-9.65 0-4.44 5.34-17.57 5.57-18.13a.51.51 0 01.65-.27.5.5 0 01.28.65c-.06.14-5.5 13.51-5.5 17.75 0 4.54-5.43 10.12-5.67 10.35a.47.47 0 01-.35.15z" fill="#263238"/><path d="M197.51 99.91s37.41-1.37 44.23 4.52c19.06 16.45-8.69 35.28-4.91 78.23l-47.83-7.6s11.86-18.13 1.59-43c-6.19-15.06-2.7-29.22 6.92-32.15z" fill="#ff0"/><path d="M236.83 183.16h-.08L189 175.55a.52.52 0 01-.38-.29.51.51 0 010-.48c.12-.18 11.59-18.21 1.55-42.49-3.81-9.2-4.2-18.67-1.06-25.33a13.51 13.51 0 018.25-7.53h.13c1.54-.06 37.69-1.31 44.58 4.64 10.47 9 7.13 18.85 2.5 32.42-4 11.74-9 26.34-7.25 46.15a.49.49 0 01-.15.41.55.55 0 01-.34.11zm-47-8.48l46.42 7.39c-1.59-19.69 3.36-34.22 7.35-45.92 4.67-13.69 7.76-22.74-2.2-31.35-6.46-5.57-42.06-4.46-43.83-4.4a12.58 12.58 0 00-7.57 7c-3 6.41-2.63 15.57 1.07 24.52 9.19 22.17.74 39.27-1.22 42.76z" fill="#263238"/><g clip-path="url(#freepik--clip-path-7--inject-158)"><path d="M236.83 182.66l-47.83-7.6s6.69-10.23 5.67-25.85c2.26.72 6.4 1.39 12.36-.2a126.41 126.41 0 0012.85-4.26 1.49 1.49 0 011.6 2.45c-4 4-9.85 9.1-14.45 10.15-7.85 1.78 5 5.74 8.44 3.63s13.81 4.45 13.81 4.45-2.1-5.31-2.36-5.54 4.78 0 4.78 0 9.78-16.58 7.09-18.7-6.21-12.42-7.09-16.11-22.27-8.18-27.64-15.2 0 7.29 0 7.29-11.12 1.74-16.54-1.62c.47-7.86 4.06-13.87 9.95-15.67 0 0 37.41-1.37 44.23 4.52 19.1 16.48-8.65 35.31-4.87 78.26z" opacity=".15"/></g><path d="M242.4 105.9c11.48-4.91 15.2 20.83 15.73 26.27s8.18 15.29 10 24.54 7.07 40.81 13.78 46.08-19.95 7.44-19.18 2.65c2.63-16.22-16.79-38.37-17.48-44.4s-.93-15.33-.93-15.33-15.74-33.9-1.92-39.81z" fill="#fff"/><path d="M270.73 208.6a21.08 21.08 0 01-6.27-.76c-2-.7-2.32-1.73-2.2-2.48 1.73-10.72-6.28-24-12.13-33.71-2.86-4.73-5.11-8.47-5.35-10.56-.65-5.64-.91-14.23-.94-15.26-.85-1.87-10.82-24-6.57-35.08a9 9 0 014.94-5.31 6.66 6.66 0 016.31.28c7.89 4.67 10 25.52 10.11 26.4.24 2.45 2 5.88 4 9.85 2.33 4.52 5 9.66 6 14.65.2 1 .45 2.35.74 3.88 2.29 12.11 7.05 37.33 12.86 41.89 1.51 1.19 1.41 2.22 1.05 2.87-1.19 2.22-7.28 3.34-12.55 3.34zM242.6 106.36a8.09 8.09 0 00-4.4 4.75c-4.19 11 6.48 34.16 6.59 34.39a.46.46 0 01.05.2c0 .09.25 9.34.93 15.28.21 1.87 2.53 5.71 5.21 10.16 5.93 9.83 14.06 23.3 12.27 34.38-.11.67.78 1.11 1.54 1.37 4.8 1.64 16.34.27 17.62-2.1.1-.17.38-.69-.79-1.61-6.11-4.79-10.91-30.26-13.22-42.5l-.74-3.87c-1-4.85-3.58-9.92-5.87-14.39-2.09-4-3.9-7.56-4.16-10.2-.71-7.33-3.65-22.11-9.62-25.64a5.65 5.65 0 00-5.41-.22zm-.2-.46z" fill="#263238"/><path d="M224.85 367.59a14.13 14.13 0 010 6.19c-.76 3.53 1.84 9.47-1.21 9.77s-10.75 1.4-11.43-2.42 1.34-9.77 1.34-9.77-2.19-7.05 1-8.72 10.73-.07 10.3 4.95z" fill="#ff0"/><path d="M218.34 384.42c-3.1 0-6.16-.6-6.62-3.21-.64-3.6 1-8.87 1.3-9.85-.32-1.11-2-7.45 1.34-9.16 2.27-1.17 6.22-.8 8.62.8a4.88 4.88 0 012.37 4.54 14.71 14.71 0 010 6.35 15.09 15.09 0 00.1 4.47c.25 2.12.47 3.95-.36 5a1.93 1.93 0 01-1.4.7l-.76.08a45.3 45.3 0 01-4.59.28zm-.7-21.91a6.28 6.28 0 00-2.82.58c-2.34 1.2-1.37 6.27-.8 8.13a.51.51 0 010 .3c0 .06-2 5.87-1.32 9.52.55 3.08 7 2.41 10.12 2.08l.77-.07a1 1 0 00.71-.34c.57-.7.36-2.5.15-4.24a15.51 15.51 0 01-.09-4.79 14.06 14.06 0 000-6 .37.37 0 010-.18 4 4 0 00-1.93-3.71 9 9 0 00-4.79-1.28z" fill="#263238"/><path d="M244.63 215.8v3.38c-.82 34.08-13.33 74.88-15.3 83.17-2.26 9.53.73 19.52-.83 31.17-1.5 11.29-5.89 34.07-5.89 34.07s-6.91 2.51-7.41-2.48c0 0 2.14-7.8-1.19-30.54-1.63-11.2 2.89-24.09 1.39-31.3-1.27-6.07-2.58-41.29-6.65-57.64-.29.71-.57 1.44-.81 2.17-6.28 18.17 0 41.79-3.55 66.58 0 0 2 27.5 0 35.65-3.84 15.91-.23 54.13-.23 54.13l-16.58 1.37s-9.2-50.62-9.86-64c-.75-15.21 4-25.32 2.77-38.63-1.46-15.69-8.27-53-9-62.4-3.33-44 19.39-69 19.39-69s11.94-4.13 23.24-2.62c13.73 1.83 22 6.89 22 6.89 4.93 5.23 10.01 24.87 8.51 40.03z" fill="#263238"/><path d="M220.59 381.24a16.93 16.93 0 01-5.85-1.14.5.5 0 01-.28-.65.51.51 0 01.66-.27s5.81 2.33 9.71 0a.5.5 0 01.68.17.51.51 0 01-.17.69 9.27 9.27 0 01-4.75 1.2zm-1.31-7.52a11.52 11.52 0 01-6-2 .51.51 0 01-.11-.7.49.49 0 01.69-.11s4.7 3.26 8.88.85a.52.52 0 01.69.19.51.51 0 01-.19.68 7.78 7.78 0 01-3.96 1.09z" fill="#263238"/><path d="M229.29 302.35c-2.26 9.53.73 19.52-.83 31.17-1.5 11.29-5.89 34.07-5.89 34.07s-6.91 2.51-7.41-2.48c0 0 2.14-7.8-1.19-30.54-1.63-11.2 2.89-24.09 1.39-31.3-1.27-6.07-2.58-41.29-6.65-57.64-.29.71-.57 1.44-.81 2.17v-10.87s2.71-4.4 2.68-6.15a19 19 0 011.13-4.89s20.75 6.77 32.88-6.71c-.82 34.08-13.33 74.88-15.3 83.17z" opacity=".3"/><path d="M184.26 417.61c-4.11-10.93-5.51-25.65-1-33.39 0 0-3.12-2.41-.29-7.46 1.68-3 15.68-6.18 19.14-2.06s-.72 7.12-.72 7.12 4.69-.69 4.69 20c.01 15.49-21.82 15.79-21.82 15.79z" fill="#ff0"/><path d="M184.26 418.11a.5.5 0 01-.47-.32c-4-10.58-5.6-25.37-1.15-33.49-.77-.84-2.52-3.44-.09-7.78 1.14-2 6.62-3.76 11-4.17 2.5-.24 7-.29 8.92 2a5.32 5.32 0 011.45 4.15 5.48 5.48 0 01-1.56 3.07 2.85 2.85 0 01.44.32c1.72 1.48 3.76 6.13 3.76 19.86 0 15.84-22.1 16.33-22.33 16.33zm11.55-44.87c-.67 0-1.39 0-2.14.1-5.1.48-9.5 2.32-10.25 3.67-2.57 4.58 0 6.72.16 6.81a.52.52 0 01.12.65c-4.49 7.68-2.95 22.15.9 32.63 2.77-.13 21-1.52 21-15.32s-2.07-17.83-3.31-19a1.34 1.34 0 00-.83-.46.46.46 0 01-.52-.31.49.49 0 01.18-.59 5 5 0 001.85-3 4.4 4.4 0 00-1.23-3.38c-.98-1.18-3.09-1.8-5.93-1.8z" fill="#263238"/><path d="M186.57 391.6c7.1-10.42 17.59-6.63 19.19 2.8s2.23 16.55 3.32 28-2.85 13.11-12.33 14.33-19.21-31.87-10.18-45.13z" fill="#757575"/><path d="M196.23 437.27c-2.45 0-5-2-7.28-5.76-5.69-9.28-9.71-30-2.79-40.19 3.36-4.93 7.78-7.21 12.15-6.26 4 .88 7.14 4.51 7.94 9.26 1.51 8.85 2.15 15.64 3.13 25.92l.2 2.11c1.12 11.78-3.24 13.65-12.76 14.88a5.85 5.85 0 01-.59.04zm.13-51.42c-3.37 0-6.71 2.13-9.38 6-6.69 9.84-2.74 30.05 2.82 39.11 2.25 3.66 4.7 5.53 6.89 5.25 9.27-1.2 12.95-2.78 11.89-13.79l-.2-2.12c-1-10.25-1.62-17-3.11-25.84-.75-4.41-3.5-7.65-7.18-8.45a8.41 8.41 0 00-1.73-.16zm-9.79 5.75z" fill="#263238"/><path d="M187 399.22a.5.5 0 01-.11-1c.11 0 11.35-2.62 17.19-3.11a.52.52 0 01.54.46.5.5 0 01-.46.54c-5.77.48-16.93 3.06-17 3.08zm-1 9.02a.5.5 0 01-.49-.41.49.49 0 01.4-.58c.57-.11 14-2.54 18.1-3a.5.5 0 01.55.45.52.52 0 01-.45.55c-4.11.41-17.88 2.91-18 2.94zm1 7.76a.5.5 0 01-.06-1c6.9-.95 17.62-2.72 18.86-3.71a.5.5 0 01.62.79c-1.85 1.47-17.56 3.66-19.35 3.91zm1.11 8.08a.5.5 0 01-.07-1c4.63-.72 17.09-2.83 19-4a.51.51 0 01.69.18.51.51 0 01-.18.69c-2.5 1.46-18.7 4-19.39 4.08zm3.39 5.27a.49.49 0 01-.49-.41.51.51 0 01.41-.58c.13 0 12.6-2.08 15.72-3.36a.5.5 0 01.65.27.51.51 0 01-.27.66c-3.22 1.32-15.42 3.33-15.93 3.42zm3.57 4.71a.5.5 0 01-.11-1c.11 0 10.95-2.55 12.26-2.83a.5.5 0 01.6.38.51.51 0 01-.39.6c-1.3.28-12.14 2.8-12.25 2.82zM186 381.63a.49.49 0 01-.41-.22.51.51 0 01.13-.7c.38-.25 9.16-6 15.15-1.47a.51.51 0 01.1.7.5.5 0 01-.7.1c-5.42-4.12-13.9 1.45-14 1.5a.49.49 0 01-.27.09zm-3.91 15.95H182a.5.5 0 01-.44-.55c0-.13 1.56-12.19 10.76-14s10.45 2.83 10.49 3a.5.5 0 01-.38.6.52.52 0 01-.6-.39c0-.15-1-3.86-9.32-2.25-8.48 1.64-9.94 13-10 13.09a.5.5 0 01-.42.5z" fill="#263238"/><path d="M225.07 249.61a.48.48 0 01-.28-.08c-11.48-7.54-14.55-15.62-14.68-16a.5.5 0 01.3-.64.49.49 0 01.64.29c0 .08 3.1 8.13 14.29 15.48a.49.49 0 01-.27.91zm-6.44 62.94a.5.5 0 01-.5-.5A11 11 0 01225 301.6a.51.51 0 01.63.32.5.5 0 01-.31.63 9.83 9.83 0 00-6.21 9.5.5.5 0 01-.48.5zm-34.54-1.18a.52.52 0 01-.27-.07.51.51 0 01-.16-.69c.05-.08 4.81-7.44 11.8-5.49a.51.51 0 01.35.62.5.5 0 01-.62.34c-6.27-1.75-10.64 5-10.68 5.06a.51.51 0 01-.42.23zM197 298.29a.49.49 0 01-.49-.41c-1.2-6.61-8.64-10.47-8.71-10.5a.5.5 0 01-.22-.68.49.49 0 01.67-.21c.32.16 8 4.12 9.24 11.21a.5.5 0 01-.4.58zm10.07-53.6a.5.5 0 01-.33-.12c-.09-.08-9-7.73-24.61-8.44a.5.5 0 11.05-1c16 .73 25.13 8.61 25.22 8.69a.5.5 0 010 .7.46.46 0 01-.33.17zm21.15-12.21c-6 0-12.05-2.67-16.62-6-15.33 3.8-26.49 2.27-34.12-4.65a.5.5 0 11.67-.74c7.4 6.71 18.34 8.14 33.44 4.37a.48.48 0 01.42.08c6.89 5.17 17.26 8.72 25.71 3.22a.5.5 0 11.54.83 18.05 18.05 0 01-10.04 2.89zm-16.38-14.96h-.11a.5.5 0 01-.38-.6c2.71-11.62 0-30 0-30.16a.5.5 0 01.43-.56.49.49 0 01.56.42c0 .18 2.75 18.72 0 30.53a.5.5 0 01-.5.37zm-20.34-10.75a.5.5 0 01-.26-.08l-9-5.73a.52.52 0 01-.23-.42c0-.23 0-5.72 1.63-9.3a.5.5 0 01.67-.24.49.49 0 01.24.66c-1.37 3-1.52 7.46-1.54 8.6l8.51 5.42 8.66-5.45 2.06-13.15c-10.67-2-16 0-16.07.06a.51.51 0 01-.65-.27.5.5 0 01.28-.65c.23-.1 5.79-2.29 17.11 0a.5.5 0 01.39.57l-2.17 13.85a.49.49 0 01-.23.35l-9.12 5.73a.5.5 0 01-.28.05zm42.18 3.81a.47.47 0 01-.28-.09l-8.62-6a.5.5 0 01-.2-.51c.53-2.5-2.1-12.53-3.16-16.19a.51.51 0 01.35-.62.5.5 0 01.61.35c.16.53 3.64 12.61 3.23 16.33l8 5.55 4.7-4.65c-.28-3.77-1.38-13.15-3.51-15.42a75.16 75.16 0 00-9.63-1.17.51.51 0 01-.5-.5.5.5 0 01.5-.5 76.59 76.59 0 0110 1.22.48.48 0 01.26.12c3 2.83 3.89 15.86 3.93 16.41a.48.48 0 01-.15.39l-5.21 5.14a.5.5 0 01-.32.14zm-1.94-32.94a.58.58 0 01-.18 0c-16.75-6.62-39.72-1.71-39.95-1.66a.5.5 0 01-.59-.38.5.5 0 01.38-.6c.23-.05 23.5-5 40.53 1.71a.5.5 0 01-.19 1zm52.74 27.19c3 3.16 6.15 15.46.87 15s-20.8-10.49-20.8-10.49z" fill="#fff"/><path d="M285.61 220.38h-.3c-5.36-.44-20.4-10.15-21-10.57a.49.49 0 01-.22-.5.48.48 0 01.38-.4l19.93-4.56a.52.52 0 01.47.15c2.36 2.46 5 10.74 3.33 14.24a2.7 2.7 0 01-2.59 1.64zm-19.78-10.78c3.51 2.22 15.22 9.42 19.56 9.77a1.73 1.73 0 001.87-1.07c1.43-3-.83-10.41-2.95-12.92z" fill="#263238"/><path d="M249.43 450.8s.83 7.63-1.12 12.44h-7.67s-2.51-4-1.1-12.44z" fill="#757575"/><path d="M248.31 463.74h-7.67a.51.51 0 01-.43-.23c-.1-.17-2.59-4.22-1.17-12.8a.5.5 0 01.5-.41h9.89a.5.5 0 01.5.44c0 .32.82 7.82-1.15 12.69a.5.5 0 01-.47.31zm-7.38-1h7c1.47-4 1.14-9.8 1-11.44h-9c-1.01 6.77.54 10.51 1 11.44z" fill="#263238"/><path d="M342.76 450.8a15.89 15.89 0 01-1.12 12.44h-7s-3.16-4-1.75-12.44z" fill="#757575"/><path d="M341.64 463.74h-7a.49.49 0 01-.39-.19c-.14-.16-3.28-4.23-1.85-12.84a.49.49 0 01.49-.41h9.9a.48.48 0 01.46.32 16.22 16.22 0 01-1.15 12.87.49.49 0 01-.46.25zm-6.77-1h6.47a15.52 15.52 0 001.05-11.44h-9.1c-1.04 6.86 1.03 10.59 1.58 11.44z" fill="#263238"/><path d="M334.83 461.86h-.08a.5.5 0 01-.42-.57 27.25 27.25 0 00-.7-9.88.5.5 0 011-.27 27.54 27.54 0 01.73 10.31.5.5 0 01-.53.41z" fill="#263238"/><path d="M345.17 453.18h-108.3a4.57 4.57 0 01-4.55-4.48l-.06-4.2a4.4 4.4 0 014.41-4.49H345a4.57 4.57 0 014.55 4.49l.06 4.2a4.4 4.4 0 01-4.44 4.48z" fill="#999"/><path d="M345.17 453.68h-108.3a5.07 5.07 0 01-5.05-5l-.06-4.2a4.88 4.88 0 014.91-5H345a5.08 5.08 0 015 5l.06 4.2a4.9 4.9 0 01-4.91 5zm-108.5-13.17a3.89 3.89 0 00-3.91 4l.06 4.2a4.07 4.07 0 004.05 4h108.3a3.89 3.89 0 003.91-4l-.06-4.2a4.07 4.07 0 00-4-4z" fill="#263238"/><path d="M230.63 277.5s-3 84.31-2.11 142.5a56.14 56.14 0 002.75 16.75c2.13 6.47 8.76 10.91 16.18 10.91h86.93a16.83 16.83 0 0013.69-6.66c4.15-5.74 8.85-14.52 7.37-23.43-2.54-15.18-124.81-140.07-124.81-140.07z" fill="#ff0"/><path d="M334.38 448.16h-86.93c-7.62 0-14.47-4.62-16.65-11.25A56.41 56.41 0 01228 420c-.85-57.53 2.08-141.68 2.11-142.52a.5.5 0 01.86-.33c5 5.1 122.41 125.18 124.94 140.38 1.51 9.06-3.22 18-7.46 23.81a17.28 17.28 0 01-14.07 6.82zM231.09 278.68c-.35 10.4-2.87 87.5-2.07 141.31a55.47 55.47 0 002.73 16.61c2 6.22 8.5 10.56 15.7 10.56h86.93a16.26 16.26 0 0013.28-6.41c4.12-5.7 8.73-14.34 7.28-23.06-2.37-14.24-113.17-128.06-123.85-139.01z" fill="#263238"/><g clip-path="url(#freepik--clip-path-8--inject-158)"><path d="M230.63 277.5s-3 84.31-2.11 142.5a56.14 56.14 0 002.75 16.75c2.13 6.47 8.76 10.91 16.18 10.91h86.93a16.83 16.83 0 0013.69-6.66c4.15-5.74 8.85-14.52 7.37-23.43-2.54-15.18-124.81-140.07-124.81-140.07z" opacity=".3"/><path d="M336.16 437.86h-89.52a15.33 15.33 0 01-13.38-7.53.5.5 0 01.87-.49 14.3 14.3 0 0012.51 7h89.52a13.85 13.85 0 0011.59-5.84l1.13-1.67a.5.5 0 11.82.56l-1.12 1.67a14.86 14.86 0 01-12.42 6.3z" fill="#263238"/></g><path fill="#bfbfbf" d="M304.54 298.61l-9.37-82.59h-41.2l1.37 89.58-4.3-4.48-1.37-89.59h49.77l9.38 82.59-4.28 4.49z"/><path d="M255.86 306.87l-5.32-5.55-1.38-90.32h50.73l.05.44 9.4 82.82-5.17 5.44-9.45-83.21h-40.24zm-4.33-6l3.29 3.43-1.36-88.82h42.15l.05.44 9.26 81.53 3.37-3.55L299 212h-48.82z" fill="#263238"/><path d="M249.73 215.66a4.64 4.64 0 014.27.34h41.2s3-1.25 4.7-.71l.56-1.61a2.37 2.37 0 00-2.23-3.13h-47.1a2.29 2.29 0 00-2.13 3.15z" fill="#757575"/><path d="M295.17 216.52H254a.5.5 0 01-.26-.08 4.15 4.15 0 00-3.76-.33.51.51 0 01-.4 0 .53.53 0 01-.28-.29l-.75-2a2.82 2.82 0 01.31-2.61 2.76 2.76 0 012.3-1.2h47.04a2.86 2.86 0 012.33 1.21 2.82 2.82 0 01.37 2.59l-.56 1.61a.51.51 0 01-.62.31c-1.25-.4-3.57.36-4.36.69a.65.65 0 01-.19.1zm-41.07-1h41a10.23 10.23 0 014.47-.79l.42-1.19a1.84 1.84 0 00-.24-1.68 1.85 1.85 0 00-1.52-.79h-47.1a1.79 1.79 0 00-1.67 2.45L250 215a5.2 5.2 0 014.1.52z" fill="#263238"/><path d="M346.17 427.72H242.23c-6.25 0-11.34-5.7-11.37-12.6l-.6-135.31c0-4.42 3.93-8 8.82-8h81.29c4.89 0 9.5 3.54 10.3 8l24.54 135.31c1.25 6.88-2.79 12.6-9.04 12.6z" fill="#ff0"/><path d="M346.17 428.22H242.23c-6.51 0-11.84-5.88-11.87-13.1l-.6-135.31a8 8 0 012.38-5.67 9.81 9.81 0 016.94-2.79h81.29c5.12 0 10 3.76 10.79 8.37L355.7 415a12 12 0 01-2.24 9.85 9.31 9.31 0 01-7.29 3.37zM239.08 272.35a8.83 8.83 0 00-6.23 2.49 7 7 0 00-2.09 5l.6 135.31c0 6.67 4.9 12.1 10.87 12.1h103.94a8.34 8.34 0 006.53-3 10.94 10.94 0 002-9L330.18 279.9c-.76-4.16-5.15-7.55-9.81-7.55z" fill="#263238"/><path d="M245.48 280.2c-1 0-1.84 1.1-1.8 2.46l3.55 127.07c.06 2 1.14 3.72 2.41 3.72 1.27 0 2.25-1.67 2.18-3.72l-4.38-127.07a2.32 2.32 0 00-1.96-2.46zm22.32 0c-1 0-1.79 1.1-1.7 2.46l8.54 127.07c.14 2 1.28 3.72 2.56 3.72 1.27 0 2.18-1.67 2-3.72l-9.38-127.07a2.44 2.44 0 00-2.02-2.46zm23.08 0c-1 0-1.75 1.1-1.61 2.46L303 409.73c.22 2 1.43 3.72 2.71 3.72 1.27 0 2.11-1.67 1.88-3.72L293 282.66a2.57 2.57 0 00-2.12-2.46zm22.31 0c-1 0-1.7 1.1-1.5 2.46l18.7 127.07c.3 2 1.58 3.72 2.85 3.72 1.28 0 2.05-1.67 1.74-3.72l-19.54-127.07a2.69 2.69 0 00-2.25-2.46z" opacity=".2"/><path d="M246.7 391.14a.5.5 0 01-.5-.48l-1.43-51.08a.51.51 0 01.49-.51.5.5 0 01.51.49l1.43 51.07a.49.49 0 01-.49.51zm4.3 26.97a4.41 4.41 0 01-4.18-4.44l-.22-7.92a.5.5 0 01.49-.51.52.52 0 01.51.49l.22 7.92a3.4 3.4 0 003.18 3.46 2.79 2.79 0 002-.86 3.59 3.59 0 00.93-2.57l-.27-7a.51.51 0 01.48-.52.52.52 0 01.52.48l.27 7a4.57 4.57 0 01-1.21 3.3 3.76 3.76 0 01-2.72 1.17zm3.1-12.82a.5.5 0 01-.5-.48l-1.42-37.2a.5.5 0 011 0l1.42 37.2a.51.51 0 01-.48.52zm-1.81-47.48a.5.5 0 01-.5-.48L249 282.7a2.12 2.12 0 00-.74-1.48 2.7 2.7 0 00-3.49.08 1.91 1.91 0 00-.55 1.37l.27 9.67a.49.49 0 01-.48.51.52.52 0 01-.52-.48l-.27-9.68a2.87 2.87 0 01.84-2.09 3.7 3.7 0 014.85-.13 3 3 0 011.08 2.19l2.84 74.63a.5.5 0 01-.48.52z" fill="#263238"/><path d="M244.14 299.37a.49.49 0 01-.5-.49l-.11-3.85a.5.5 0 01.49-.51.51.51 0 01.51.48l.11 3.86a.51.51 0 01-.49.51zm.91 32.81a.51.51 0 01-.5-.49l-.88-31.69a.5.5 0 01.48-.52.52.52 0 01.52.49l.88 31.73a.5.5 0 01-.48.51zm34.13 85.93a4.61 4.61 0 01-4.33-4.42l-.6-8.87a.5.5 0 011-.07l.6 8.88a3.59 3.59 0 003.33 3.48 2.62 2.62 0 001.94-.85 3.4 3.4 0 00.83-2.56l-3-38.4a.5.5 0 01.46-.54.49.49 0 01.54.46l3 38.4a4.41 4.41 0 01-1.08 3.32 3.65 3.65 0 01-2.69 1.17zm-.26-49.11a.5.5 0 01-.5-.46l-4.62-59.27a.5.5 0 01.46-.54.49.49 0 01.54.46l4.62 59.27a.5.5 0 01-.46.54zm-4.85-62.27a.5.5 0 01-.5-.46l-1.84-23.55a2.18 2.18 0 00-.8-1.49 2.68 2.68 0 00-3.48.06 1.79 1.79 0 00-.49 1.35l.4 5.83a.5.5 0 01-1 .07l-.4-5.83a2.81 2.81 0 01.76-2.11 3.71 3.71 0 014.85-.14 3.18 3.18 0 011.16 2.18l1.84 23.55a.5.5 0 01-.46.54zm-5.21 11.78a.5.5 0 01-.5-.46l-1.15-16.94a.49.49 0 01.47-.53.5.5 0 01.53.46l1.15 16.96a.5.5 0 01-.47.53zm4.81 70.93a.5.5 0 01-.5-.46l-4.35-64.22a.49.49 0 01.46-.53.5.5 0 01.53.46l4.36 64.22a.5.5 0 01-.46.53zm18.27-81.21a.51.51 0 01-.5-.45l-2.7-25a2.73 2.73 0 01.68-2.12 3.71 3.71 0 014.85-.15 3.27 3.27 0 011.23 2.16l.46 3.85a.51.51 0 01-.44.56.5.5 0 01-.55-.44l-.46-3.85a2.28 2.28 0 00-.87-1.5 2.67 2.67 0 00-3.47 0 1.65 1.65 0 00-.43 1.34l2.7 25.06a.51.51 0 01-.45.55zm5.48 50.87a.51.51 0 01-.5-.45l-3.26-30.31a.5.5 0 011-.11l3.27 30.32a.5.5 0 01-.45.55z" fill="#263238"/><path d="M307.35 418.11a4.82 4.82 0 01-4.49-4.4l-4.46-41.4a.5.5 0 01.44-.56.51.51 0 01.55.45l4.46 41.41a3.81 3.81 0 003.5 3.5 2.52 2.52 0 001.89-.84 3.27 3.27 0 00.72-2.55l-14.44-122.44a.5.5 0 01.44-.55.49.49 0 01.55.43L311 413.6a4.24 4.24 0 01-1 3.33 3.47 3.47 0 01-2.65 1.18zm11.9-85.93a.5.5 0 01-.49-.43l-7.24-49a2.62 2.62 0 01.61-2.14 3.67 3.67 0 014.83-.16 3.46 3.46 0 011.32 2.15l.4 2.56a.49.49 0 01-.41.57.5.5 0 01-.57-.41l-.41-2.56a2.45 2.45 0 00-.94-1.52 2.69 2.69 0 00-3.47 0 1.7 1.7 0 00-.37 1.35l7.24 49a.5.5 0 01-.42.56zm2 13.51a.51.51 0 01-.5-.43l-.62-4.24a.5.5 0 011-.14l.62 4.24a.49.49 0 01-.42.56zm8.36 56.59a.51.51 0 01-.5-.43l-7.8-52.85a.5.5 0 01.42-.57.51.51 0 01.57.42l7.8 52.84a.5.5 0 01-.42.57zm5.9 15.83a5 5 0 01-4.64-4.38l-.75-5.05a.5.5 0 111-.14l.75 5a4 4 0 003.65 3.52 2.36 2.36 0 001.84-.83 3.13 3.13 0 00.61-2.54l-5-31.85a.49.49 0 01.41-.57.51.51 0 01.58.41l5 31.85a4.15 4.15 0 01-.84 3.35 3.36 3.36 0 01-2.61 1.23zm-3.2-42.92a.5.5 0 01-.5-.42L321 306.31a.5.5 0 01.41-.57.51.51 0 01.58.42l10.8 68.45a.51.51 0 01-.41.58zm-11.46-72.61a.51.51 0 01-.5-.42l-1.35-8.39a.5.5 0 01.41-.57.51.51 0 01.58.41l1.32 8.39a.5.5 0 01-.42.57z" fill="#263238"/><path d="M250.47 283.82l-5.79 18.33a2.8 2.8 0 003.39 3.39l20.63-4.2a2.45 2.45 0 001.18-4.29l-14.83-14.13a2.81 2.81 0 00-4.58.9z" fill="#fff"/><path d="M247.47 306.1a3.5 3.5 0 01-2.59-1.14 3 3 0 01-.68-3l5.8-18.29a3 3 0 012.14-1.95 3.52 3.52 0 013.26.84l14.84 14.12a3.07 3.07 0 01.9 3.07 3 3 0 01-2.33 2.08L248.17 306a3.39 3.39 0 01-.7.1zm5.53-23.49a2.57 2.57 0 00-.62.08A2 2 0 00251 284l-5.8 18.33a2 2 0 00.47 2 2.48 2.48 0 002.35.76l20.63-4.2a2 2 0 001.57-1.37 2.07 2.07 0 00-.63-2.07l-14.89-14.17a2.48 2.48 0 00-1.7-.67zm-2.53 1.21z" fill="#263238"/><path d="M247.69 304.1a1.32 1.32 0 01-1.2-.36 1.13 1.13 0 01-.3-1.14l5.75-18.36a1.1 1.1 0 01.86-.73 1.3 1.3 0 011.16.33L268.8 298a1.12 1.12 0 01.34 1.12 1.09 1.09 0 01-.87.77z" fill="#fff"/><path d="M247.4 304.62a1.82 1.82 0 01-1.27-.53 1.63 1.63 0 01-.42-1.64l5.75-18.36a1.59 1.59 0 011.24-1.09 1.8 1.8 0 011.61.46l14.83 14.17a1.62 1.62 0 01.48 1.62 1.58 1.58 0 01-1.25 1.13l-20.58 4.19zm.29-.52zm5.37-20.1h-.16a.62.62 0 00-.49.39l-5.75 18.36a.6.6 0 00.18.63.8.8 0 00.75.23l20.58-4.19a.56.56 0 00.48-.42.57.57 0 00-.2-.62l-14.83-14.17a.81.81 0 00-.56-.21z" fill="#263238"/><path d="M253.29 302.58a.51.51 0 01-.48-.64l.86-3.09-.17-.6a.45.45 0 01.06-.39.5.5 0 01.32-.23l5.49-1.11a.5.5 0 01.57.36l.13.42 2.48 2.42a.5.5 0 010 .71.49.49 0 01-.7 0l-2.59-2.52a.45.45 0 01-.13-.22v-.1l-4.5.9.06.21a.62.62 0 010 .27l-.68 2.44.3-.06a4 4 0 012.79-2.8c2.21-.44 4.14 1.53 4.22 1.61a.5.5 0 010 .71.48.48 0 01-.7 0s-1.65-1.66-3.31-1.33-2.11 2.35-2.11 2.37a.49.49 0 01-.39.37l-1.39.29z" fill="#263238"/><path d="M254.64 297.78a.5.5 0 01-.45-.55l.16-1.81-.13-.47a.54.54 0 01.06-.39.49.49 0 01.33-.23l2.37-.48a.5.5 0 01.58.36l.17.58 1.2 1.38a.48.48 0 010 .7.5.5 0 01-.71 0l-1.28-1.47a.44.44 0 01-.1-.19l-.07-.25-1.4.28a.52.52 0 010 .18l-.18 1.9a.5.5 0 01-.55.46z" fill="#263238"/><path d="M254.94 294.24a.51.51 0 01-.49-.4l-.88-4.52a.49.49 0 01.39-.58l.56-.11a.5.5 0 01.56.3l1.73 4.34a.5.5 0 11-.92.37l-.89-2.21.43 2.21a.49.49 0 01-.39.59z" fill="#263238"/><path d="M253.19 289a.51.51 0 01-.49-.4.5.5 0 01.39-.59l1.91-.38a.49.49 0 01.59.39.5.5 0 01-.39.59l-1.91.38z" fill="#263238"/><path d="M253.92 288a.51.51 0 01-.49-.36l-.12-.44a.51.51 0 01.35-.62.49.49 0 01.61.35l.13.43a.5.5 0 01-.35.62z" fill="#263238"/><path d="M263.55 300s-3.09-2.79-3.3-3.56l-.92-.49a9.9 9.9 0 01-1.29-2.27c-.25-.86-1.22-1.19-1.45-2.58a2.73 2.73 0 00-.93-1.85l.57-.84s-1.65-.56-1.7-1.21-.14-1.13-.74-1.08-.75 1.44-.75 1.44-.87 1.22-.73 1.63a1.61 1.61 0 00.71.7 27.5 27.5 0 01.67 4.21 4.27 4.27 0 00-.33 1.79c0 .79-.3 1.93-.72 2s-.85 4.55-.85 4.55l-2.59.45a1 1 0 01-1.14-1.11L252.5 285a.8.8 0 011.33-.28l13.26 13.2a.83.83 0 01-.42 1.44z" fill="#ff0" opacity=".6"/><path d="M316.11 304.73l-18.34-3.38a2.77 2.77 0 01-2.35-2.83l1.38-13.44a2.19 2.19 0 012.73-1.78l17.79 3.17a2.81 2.81 0 012.4 2.72l-.84 13.64a2.2 2.2 0 01-2.77 1.9z" fill="#fff"/><path d="M316.63 305.27a3.2 3.2 0 01-.61 0l-18.34-3.38a3.28 3.28 0 01-2.76-3.37L296.3 285a2.43 2.43 0 011-1.71 3 3 0 012.35-.51l17.76 3.22a3.33 3.33 0 012.81 3.24l-.84 13.64a2.52 2.52 0 01-1 1.83 2.91 2.91 0 01-1.75.56zm-.43-1a2 2 0 001.61-.33 1.52 1.52 0 00.57-1.11l.84-13.64a2.28 2.28 0 00-2-2.18l-17.78-3.18a2.06 2.06 0 00-1.58.33 1.41 1.41 0 00-.58 1l-1.37 13.44a2.26 2.26 0 001.94 2.29z" fill="#263238"/><path d="M316.26 304.24l-18.59-3.42a2 2 0 01-1.67-2l1.4-13.82a1.56 1.56 0 012-1.26l18 3.22a2 2 0 011.71 1.93l-.88 14a1.57 1.57 0 01-1.97 1.35z" fill="#ff0" opacity=".6"/><path d="M297.91 299.92a1.07 1.07 0 01-.92-1.11l1.33-13.46a.87.87 0 011.08-.7l17.83 3.19a1.09 1.09 0 01.94 1.07l-.87 13.63a.87.87 0 01-1.09.74z" fill="#fff"/><path d="M316.41 303.8a1.36 1.36 0 01-.29 0l-18.3-3.36a1.59 1.59 0 01-1.33-1.65l1.34-13.46a1.23 1.23 0 01.5-.88 1.5 1.5 0 011.16-.26l17.83 3.19a1.59 1.59 0 011.35 1.59l-.88 13.63a1.27 1.27 0 01-.49.93 1.41 1.41 0 01-.89.27zm-17.21-18.67a.42.42 0 00-.27.09.23.23 0 00-.11.18l-1.34 13.46a.61.61 0 00.52.57l18.3 3.36a.47.47 0 00.39-.08.31.31 0 00.11-.21l.87-13.62a.61.61 0 00-.53-.55l-17.83-3.19z" fill="#263238"/><path d="M298.37 291.63h.86l-.29 2.52 2.22.55.4-5.68-.95-1.29 1.63-.13.13-.88 1.53 1.78-1.17 1-.39 3.78 2.07.58s-1.06-3.45 3.49-2.81l1-1.62.65 1.7a3.56 3.56 0 012.1 1.26 6.26 6.26 0 01.86 3.06h1.59l.64-3.79s-1.56-.94-1.68-1.36 2.16-.87 2.16-.87 2 1.41 1.52 1.7a3.26 3.26 0 00-.95 1l-.53 9.48.73.73-18.08-3.48z" fill="#ff0" opacity=".6"/><path d="M312.35 301.57a.5.5 0 01-.46-.53l.29-4.05-7.59-1.38-.34 3.93a.51.51 0 01-.55.45.5.5 0 01-.45-.54l.39-4.48a.55.55 0 01.2-.35.49.49 0 01.39-.09l8.57 1.55a.5.5 0 01.41.53l-.32 4.5a.5.5 0 01-.54.46z" fill="#263238"/><path d="M309 300.45a.5.5 0 01-.46-.54l.11-1.39-.77-.14-.11 1.29a.51.51 0 01-.54.46.5.5 0 01-.45-.54l.15-1.84a.52.52 0 01.19-.36.53.53 0 01.39-.09l1.76.32a.51.51 0 01.41.53l-.15 1.84a.5.5 0 01-.53.46zm5.15-4.23h-.09l-11.18-2a.5.5 0 01-.4-.58.5.5 0 01.58-.4l11.18 2a.5.5 0 01.4.59.49.49 0 01-.49.39zm-1.63-1.35h-.11a.5.5 0 01-.37-.6c.35-1.6-2.51-2.44-2.54-2.45a.47.47 0 01-.33-.3l-.38-1-.47.76a.5.5 0 01-.49.24c-1.37-.18-2.37 0-2.8.43a1 1 0 00-.25.83.5.5 0 01-1 .2 2 2 0 01.49-1.7c.63-.68 1.75-.95 3.35-.79l.83-1.35a.53.53 0 01.47-.24.49.49 0 01.42.32l.66 1.71c.84.29 3.48 1.38 3 3.55a.5.5 0 01-.48.39z" fill="#263238"/><path d="M300.81 299h-.05a.5.5 0 01-.45-.55l.85-9.18a.57.57 0 01.2-.36.53.53 0 01.39-.09l1.07.19a.51.51 0 01.41.54l-.28 3.08a.52.52 0 01-.55.45.5.5 0 01-.45-.54l.24-2.62h-.08l-.8 8.65a.51.51 0 01-.5.43zm3.09-10h-.09l-3.27-.58a.5.5 0 01.18-1l3.28.58a.5.5 0 01-.09 1z" fill="#263238"/><path d="M302.38 287.84a.5.5 0 01-.46-.54l.08-.81a.51.51 0 01.54-.45.5.5 0 01.46.54l-.08.81a.5.5 0 01-.54.45zm12.8 13.75a.51.51 0 01-.47-.53l.61-8.82h-.09l-.18 2.54a.51.51 0 01-.53.47.5.5 0 01-.47-.54l.22-3.1a.52.52 0 01.19-.36.5.5 0 01.4-.09l1.07.19a.49.49 0 01.41.53l-.63 9.27a.5.5 0 01-.53.44zm1.87-10.22H317l-3.3-.6a.5.5 0 01-.41-.58.51.51 0 01.59-.4l3.29.59a.5.5 0 01.41.58.51.51 0 01-.53.41z" fill="#263238"/><path d="M315.42 290.18a.49.49 0 01-.46-.53l.06-.81a.5.5 0 111 .06l-.05.82a.51.51 0 01-.55.46zm-15.33 3.94H300l-1-.18a.5.5 0 01-.4-.54l.17-1.76h-.26a.5.5 0 01-.41-.58.51.51 0 01.58-.41l.72.13a.51.51 0 01.41.54l-.17 1.76.57.1a.5.5 0 01-.09 1z" fill="#263238"/><path d="M307 353.69c-.25 8.11-7.12 13.77-15.31 12.46a16.38 16.38 0 01-13.62-17 12.86 12.86 0 0115.17-11.83A16.46 16.46 0 01307 353.69z" fill="#fff"/><path d="M294.06 366.84a15.61 15.61 0 01-2.44-.19 16.87 16.87 0 01-14-17.52 13.34 13.34 0 015-9.56 13.74 13.74 0 0110.78-2.73 17.06 17.06 0 0114.18 16.87 13.26 13.26 0 01-13.45 13.13zm-3-29.18a12.56 12.56 0 00-7.86 2.69 12.33 12.33 0 00-4.59 8.85 15.85 15.85 0 0013.2 16.46 12.7 12.7 0 0010.25-2.66 12.45 12.45 0 004.45-9.36 16 16 0 00-13.33-15.84 14.26 14.26 0 00-2.18-.14z" fill="#263238"/><path d="M280.88 351.85s-1-3.36 2.07-8.11 9.68-5.31 14.38-2.45a15.47 15.47 0 016.92 10.9 5.7 5.7 0 01-.66 3.54h-.76l.07-1.71-1.36-.22-.06 1.41-1.72-.43-.48 3.82-1.94-.3.06-1.26-1.66-.85s-1.14-5.54-.44-8.92c0 0 3.81-.58 3.65-2s-3.36-2.28-3.36-2.28.35-1.82-1.16-1.73a1.77 1.77 0 00-1.62 1.64s-3.68-.74-3.78.83 4.14 2.65 4.14 2.65l-1.55 8.82-1.52-.43.56-1.73-2.9-2.39-.33 5.53h-1.11l-.09-4.77h-2.44l-.6 1.8z" fill="#ff0" opacity=".6"/><path d="M293.86 365.05a13.27 13.27 0 01-2.15-.18 14.94 14.94 0 01-12.43-15.48 11.82 11.82 0 014.39-8.49 12.19 12.19 0 019.57-2.43 15.09 15.09 0 0112.55 15 11.78 11.78 0 01-11.93 11.61zm-2-1.16a11.22 11.22 0 009-2.31 10.89 10.89 0 003.91-8.18 14.05 14.05 0 00-11.7-13.94 11.19 11.19 0 00-8.79 2.22 10.89 10.89 0 00-4 7.79 14 14 0 0011.6 14.42z" fill="#263238"/><path d="M290.6 363.14h-.16a.51.51 0 01-.31-.64 61.72 61.72 0 002.68-14.77.49.49 0 01.53-.47.51.51 0 01.47.53 62.59 62.59 0 01-2.74 15 .5.5 0 01-.47.35zm5.4-.03a.5.5 0 01-.48-.35c-1.39-4.66-1.14-14.38-1.13-14.79a.5.5 0 01.51-.49.51.51 0 01.49.52c0 .1-.26 10 1.09 14.47a.51.51 0 01-.34.62.36.36 0 01-.14.02zm-.59-15.92a9.12 9.12 0 01-5.19-1.6.5.5 0 01.6-.8 8.33 8.33 0 006.93 1.06.5.5 0 01.28 1 9.07 9.07 0 01-2.62.34zm3.59-1.41h-.08l-9.92-1.54a.5.5 0 11.15-1l9.92 1.53a.5.5 0 01-.08 1z" fill="#263238"/><path d="M298 344.74a.47.47 0 01-.27-.08c-2.94-1.89-6.93-1.07-7-1.06a.51.51 0 01-.59-.39.49.49 0 01.38-.59c.18 0 4.44-.91 7.72 1.2a.5.5 0 01.16.69.51.51 0 01-.4.23z" fill="#263238"/><path d="M294.34 343.5a.51.51 0 01-.48-.53l.11-2a.47.47 0 01.52-.48.51.51 0 01.48.53l-.11 2a.5.5 0 01-.52.48zm-6.18 14.31h-.08l-2.55-.4a.49.49 0 01-.42-.53l.28-4.35-.59-.09-.12 1.85a.49.49 0 01-.19.35.5.5 0 01-.39.11l-2.7-.43a.5.5 0 11.15-1l2.17.34.12-1.85a.48.48 0 01.19-.35.5.5 0 01.39-.11l1.57.25a.49.49 0 01.42.53l-.28 4.35 1.56.25.26-4.27a.5.5 0 01.89-.28l1.11 1.37a.47.47 0 01.11.34l-.09 1.59 1.07.17a.5.5 0 11-.15 1l-1.52-.23a.49.49 0 01-.42-.53l.1-1.84-.18-.23-.21 3.54a.52.52 0 01-.19.36.51.51 0 01-.31.09zm11.12 1.29h-.08l-1.94-.31a.5.5 0 01-.42-.52v-.81l-.7-.11a.49.49 0 01-.41-.57.5.5 0 01.57-.41l1.14.17a.51.51 0 01.42.52v.81l.94.15.12-2.63a.47.47 0 01.18-.37.5.5 0 01.39-.11l1.49.24.06-1.37a.47.47 0 01.18-.36.5.5 0 01.39-.11l1.36.21a.52.52 0 01.43.51l-.08 2.11.47.08a.49.49 0 01.41.57.51.51 0 01-.57.42l-.91-.15a.5.5 0 01-.42-.51l.08-2.11-.37-.06-.05 1.37a.53.53 0 01-.18.37.47.47 0 01-.4.1l-1.49-.23-.11 2.63a.48.48 0 01-.19.37.51.51 0 01-.31.11z" fill="#263238"/><path d="M319 374.52l-12 2.69a3.55 3.55 0 00-2.71 2.87l-2.58 13a5.14 5.14 0 001.33 4.42l10 10.72a4.48 4.48 0 004.24 1.47l12.55-2.95a3.61 3.61 0 002.7-3.1l2-13.39a5.16 5.16 0 00-1.52-4.33l-10-10.05a4.48 4.48 0 00-4.01-1.35z" fill="#fff"/><path d="M316.37 410.28a5.2 5.2 0 01-3.75-1.73l-10-10.72a5.66 5.66 0 01-1.45-4.86l2.57-13a4.09 4.09 0 013.1-3.26l12-2.68a4.93 4.93 0 014.5 1.47l10 10a5.73 5.73 0 011.65 4.76l-2 13.4a4.08 4.08 0 01-3.09 3.5l-12.55 3a4.49 4.49 0 01-.98.12zm2.71-35.28l-12 2.69a3.07 3.07 0 00-2.33 2.47l-2.58 13a4.65 4.65 0 001.21 4l10 10.72a4 4 0 003.75 1.33l12.55-3a3.13 3.13 0 002.33-2.68l2-13.4a4.72 4.72 0 00-1.38-3.9l-10-10.05a3.94 3.94 0 00-3.57-1.2z" fill="#263238"/><path d="M316.58 407.68a2.54 2.54 0 01-2.39-.83l-10-10.67a2.91 2.91 0 01-.76-2.5l2.54-13a2 2 0 011.53-1.63l12.05-2.7a2.52 2.52 0 012.28.76l10 10.08a3 3 0 01.85 2.45L330.63 403a2 2 0 01-1.53 1.74z" fill="#fff"/><path d="M316.11 408.24a3.18 3.18 0 01-2.28-1.05l-10-10.67a3.43 3.43 0 01-.88-2.94l2.54-13a2.54 2.54 0 011.92-2l12-2.7a3 3 0 012.75.9l10 10.08a3.46 3.46 0 011 2.88l-2.06 13.37a2.52 2.52 0 01-1.91 2.15l-12.51 2.94a3 3 0 01-.57.04zm3.89-31.45a1.45 1.45 0 00-.35 0l-12 2.7a1.54 1.54 0 00-1.15 1.23l-2.54 13a2.41 2.41 0 00.63 2.06l10 10.67a2.09 2.09 0 001.91.69l12.5-2.88a1.56 1.56 0 001.14-1.34l2.06-13.37a2.46 2.46 0 00-.72-2l-10-10.08a2.14 2.14 0 00-1.48-.68z" fill="#263238"/><path d="M304.9 393.44l2.7-12.87 12.84-3 11.07 10.49-.07 4.76a6 6 0 00-3.09-1.16l-1.35-1.74s2-4.12-1.64-5.71-4.78 1.87-3.85 4.74l-2.54 1.7-8.87-4.89-4.42 8.15z" fill="#ff0" opacity=".6"/><path fill="#fff" d="M309.86 399.47l20.72-4.79"/><path d="M309.86 400a.5.5 0 01-.11-1l20.71-4.8a.5.5 0 01.6.37.49.49 0 01-.37.6L310 400z" fill="#263238"/><path fill="#fff" d="M306.2 395.39l4.47-9.07 13.27 8.56"/><path d="M306.2 395.89a.44.44 0 01-.22-.05.5.5 0 01-.23-.67l4.47-9.07a.49.49 0 01.32-.26.48.48 0 01.4.06l13.27 8.56a.5.5 0 01-.54.84l-12.8-8.25-4.22 8.57a.51.51 0 01-.45.27z" fill="#263238"/><path fill="#fff" d="M307.89 391.96l5.75-1.31"/><path d="M307.89 392.46a.5.5 0 01-.11-1l5.75-1.32a.5.5 0 01.22 1l-5.75 1.31z" fill="#263238"/><path fill="#fff" d="M312.16 393.62l6.99-1.61"/><path d="M312.16 394.12a.5.5 0 01-.11-1l7-1.6a.48.48 0 01.6.37.5.5 0 01-.37.6l-7 1.61z" fill="#263238"/><path fill="#fff" d="M308.16 397.29l8.58-1.97"/><path d="M308.16 397.79a.49.49 0 01-.48-.38.5.5 0 01.37-.6l8.57-2a.5.5 0 11.23 1l-8.57 2z" fill="#263238"/><path d="M320.92 391s1.63-.59 1.81-1.13-.87-3.42-.13-4.18 2.62-.3 2.88-.06a8.65 8.65 0 011.3 2.75c0 .56-1 .88-1 .88" fill="#fff"/><path d="M320.92 391.51a.52.52 0 01-.48-.33.51.51 0 01.31-.64 4.23 4.23 0 001.51-.83 8.13 8.13 0 00-.17-1c-.23-1.24-.5-2.65.15-3.32.95-1 3.12-.5 3.58-.08a8.36 8.36 0 011.46 3.12c0 .87-1.1 1.28-1.32 1.36a.51.51 0 01-.63-.32.5.5 0 01.31-.63 1.3 1.3 0 00.64-.41 9.09 9.09 0 00-1.15-2.39c-.23-.14-1.7-.45-2.17 0-.29.3 0 1.75.12 2.44a3.47 3.47 0 01.12 1.55c-.23.71-1.56 1.25-2.12 1.45a.45.45 0 01-.16.03z" fill="#263238"/><path d="M326.43 389s1.55 3.77 1.85 3.7a1.4 1.4 0 011.88.79" fill="#fff"/><path d="M330.16 393.94a.51.51 0 01-.48-.33c-.18-.53-.51-.66-1.22-.49-.5.12-.78.18-2.5-4a.5.5 0 01.93-.39 34 34 0 001.55 3.36 1.74 1.74 0 012.19 1.17.51.51 0 01-.31.64.47.47 0 01-.16.04z" fill="#263238"/><path d="M325 391.38s.42 1.53 1.22 1.75 1.18.24 1.41.91" fill="#fff"/><path d="M327.6 394.54a.52.52 0 01-.48-.34c-.1-.32-.17-.35-.79-.51l-.27-.07c-1-.29-1.49-1.8-1.58-2.1a.52.52 0 01.35-.62.51.51 0 01.62.35c.14.51.52 1.3.88 1.4l.26.07c.64.17 1.2.31 1.48 1.16a.5.5 0 01-.31.63.45.45 0 01-.16.03z" fill="#263238"/><path fill="#ff0" d="M310.73 400.9l19.53-4.6-.89 6.78-13.7 3.6-4.94-5.78z"/><path d="M297.33 322.79l4.1-2a1 1 0 00.38-1.51l-1.34-2.19a1.32 1.32 0 00-1.63-.54l-.54.26a1.3 1.3 0 01-1.63-.53l-3.91-6.45a1.28 1.28 0 00-1.6-.52l-1.5.7-4.72 2.21-7.41 3.46-3.83 1.79a1.05 1.05 0 00-.53 1.34l.24.63a3.81 3.81 0 00-1.86-.49 4.92 4.92 0 00-2.14.53l-1.69.79-6.78 3.17a1.09 1.09 0 00-.49 1.53 5.44 5.44 0 00-2-.39 5 5 0 00-1.79.33 5.83 5.83 0 00-2.7 2.21 1.15 1.15 0 01-1.06.46h-.73a6 6 0 00-2.78.64 4.86 4.86 0 00-2.6 4l-.34-.66a1.23 1.23 0 00-1.61-.56l-2.46 1.14a1.15 1.15 0 00-.54 1.58l5.8 11.56a1.27 1.27 0 001.66.59l2.5-1.21a1.18 1.18 0 00.52-1.62l-.45-.87a1.18 1.18 0 011.46-1.66 24.15 24.15 0 005.31 1.19l1.05.12h.14a2 2 0 001.66-.87l.51-.8c1.75-2.76 3.62-6.77 2.71-10.34a6.89 6.89 0 00-1-2.2l.2-.1 4.3 7.91a1.27 1.27 0 001.64.57l3.48-1.67 4.79-2.3 4.39-2.11-.1-.25.16.22 4.51-2.16 3.45-1.66 6.78-3.26z" fill="#fff"/><path d="M248.81 346.47a1.78 1.78 0 01-1.59-1l-5.8-11.56a1.7 1.7 0 01-.09-1.29 1.65 1.65 0 01.87-1l2.46-1.15a1.74 1.74 0 011.93.33 5.2 5.2 0 012.6-3.1 7 7 0 013.79-.65.62.62 0 00.6-.25 6.31 6.31 0 012.93-2.39 5.48 5.48 0 013.31-.2 2.06 2.06 0 01.07-.32 1.6 1.6 0 01.84-.93l8.47-4a5 5 0 013.41-.43 1.55 1.55 0 01.88-1.57l17.51-8.08a1.79 1.79 0 012.24.72l3.91 6.45a.8.8 0 001 .34l.55-.26a1.79 1.79 0 012.26.73l1.35 2.19a1.69 1.69 0 01.19 1.31 1.47 1.47 0 01-.78.91l-31.56 15.16a1.77 1.77 0 01-2.3-.78l-2.32-4.28c.13 3.26-1.5 6.63-3 9-.2.32-.37.59-.52.81a2.49 2.49 0 01-2.07 1.09h-.15l-1.1-.13a24.57 24.57 0 01-5.42-1.21.69.69 0 00-.76.18.68.68 0 00-.08.78l.44.87a1.7 1.7 0 01.11 1.34 1.68 1.68 0 01-.86 1l-2.5 1.2a1.69 1.69 0 01-.82.17zm-3.43-15.1a.63.63 0 00-.3.07l-2.46 1.15a.65.65 0 00-.34.37.63.63 0 000 .52l5.8 11.56a.76.76 0 001 .37l2.5-1.2a.69.69 0 00.34-.39.71.71 0 000-.57l-.44-.87a1.66 1.66 0 01.22-1.89 1.68 1.68 0 011.85-.46 23 23 0 005.2 1.16l1 .12h.11a1.46 1.46 0 001.22-.65c.14-.21.31-.47.5-.78 1.69-2.67 3.52-6.56 2.65-10a6.38 6.38 0 00-.93-2l-.34-.48 1.17-.55 4.52 8.32a.77.77 0 001 .36l12.23-5.87-1.23-3.1 2.08 2.69 18.47-8.88a.47.47 0 00.26-.29.61.61 0 00-.09-.5l-1.34-2.2a.8.8 0 00-1-.34l-.55.26a1.8 1.8 0 01-2.26-.73l-3.92-6.45a.79.79 0 00-1-.33L273.91 318a.53.53 0 00-.27.7l.73 1.93-1.2-.68a3.7 3.7 0 00-3.54 0l-8.48 4a.59.59 0 00-.31.35.65.65 0 00.05.49l.65 1.2-1.27-.49a4.55 4.55 0 00-3.4-.06 5.27 5.27 0 00-2.47 2 1.64 1.64 0 01-1.52.68 5.8 5.8 0 00-3.23.54 4.39 4.39 0 00-2.33 3.61l-.17 1.69-1.15-2.18a.75.75 0 00-.62-.41z" fill="#263238"/><path d="M243.55 333.42l1.66-.78 5.44 10.69-1.69.81zm18.55-8.71l5-2.33.81 1.45-1.69.8 4.9 8.9-1.64.79-4.87-8.93-1.69.79zm14.8 6.04a3.86 3.86 0 01-.87-1.21l-.92-1.63c-.53-1-1.05-1.16-1.79-.81l-.55.26 2.36 4.24-1.62.78-5.73-10.33 2.42-1.13c1.66-.78 2.8-.35 3.68 1.22l.45.79a2.18 2.18 0 01.11 2.56c1 0 1.68.6 2.29 1.67l.9 1.6a3.78 3.78 0 00.89 1.18zm-6.7-8l1.75 3.14.63-.3c.6-.28.81-.72.35-1.54l-.56-1c-.41-.73-.84-.93-1.4-.66zm14.41 4.31l-1.62.77-1.35-1.74-2 .94.79 2-1.48.71-4.17-11 2.32-1.09zm-5.52-1.52l1.54-.74-3.7-4.78zm7.18-1.69l-3.6-8.77 1.43-.68 4.37 10.82-2.37 1.13-7.42-9.4 1.59-.75zm2.63-6.35l2.15-1 .85 1.43-2.15 1 1.76 3 2.71-1.3.87 1.45-4.3 2.06-5.93-10.14 4.25-2 .84 1.41-2.69 1.26zm1.17-5.9l1.54-.73 5.14 8.51 2.57-1.22.87 1.43-4.13 2z" fill="#263238"/><path d="M260.52 327.2c-2.72-1.72-5.09.48-5.6 3-2.43-1.21-5.75-.85-6 2.25-.5 5.31 6.7 6.78 10 7.16l.93.1.48-.76c1.61-2.63 4.81-8.82.19-11.75z" fill="#ff0"/><path d="M259.76 340.23h-.05c-.26 0-.57-.06-.94-.11-3.31-.38-10.94-1.91-10.39-7.69a3.42 3.42 0 011.74-2.84 5.38 5.38 0 014.46-.07 5 5 0 012.64-3.15 3.69 3.69 0 013.56.41 5.32 5.32 0 012.48 3.43c.71 3.2-1.32 7-2.6 9-.19.31-.35.56-.49.77a.49.49 0 01-.41.25zm-7.48-10.15a3.4 3.4 0 00-1.67.38 2.47 2.47 0 00-1.24 2.06c-.46 4.91 6.5 6.26 9.52 6.61l.61.07c.1-.14.2-.31.32-.49 1.19-1.87 3.1-5.43 2.46-8.29a4.32 4.32 0 00-2-2.8 2.78 2.78 0 00-2.64-.33 4.16 4.16 0 00-2.2 3 .5.5 0 01-.27.35.52.52 0 01-.44 0 5.51 5.51 0 00-2.45-.56z" fill="#263238"/><path d="M250.11 401.78a5.28 5.28 0 01-5-4.71l-2.71-19.4a5 5 0 01.89-3.69 4.51 4.51 0 013.11-1.88l19.43-2.52a3.69 3.69 0 01.58 0 5.22 5.22 0 015 4.34l3.53 19.17a5.37 5.37 0 01-.73 3.92 4.45 4.45 0 01-3.15 2l-20.27 2.75a4.3 4.3 0 01-.68.02z" fill="#fff"/><path d="M250.11 402.28a5.79 5.79 0 01-5.53-5.14l-2.71-19.4a5.63 5.63 0 011-4.06 5.08 5.08 0 013.46-2.08l19.42-2.52a5.68 5.68 0 016.11 4.71l3.52 19.21a5.87 5.87 0 01-.81 4.28 4.9 4.9 0 01-3.5 2.24l-20.28 2.76a5.07 5.07 0 01-.68 0zM266.38 370a4.53 4.53 0 00-.52 0l-19.42 2.53a4 4 0 00-2.78 1.67 4.63 4.63 0 00-.8 3.33l2.71 19.4a4.72 4.72 0 005.09 4.25l20.27-2.76a3.93 3.93 0 002.8-1.8 4.83 4.83 0 00.66-3.55L270.86 374a4.72 4.72 0 00-4.48-4z" fill="#263238"/><path d="M270.65 397l-20.22 2.74a3.28 3.28 0 01-3.55-2.93l-2.76-19.39a3 3 0 012.52-3.51l19.48-2.54a3.25 3.25 0 013.5 2.72l3.48 19.18a3.06 3.06 0 01-2.45 3.73z" fill="#fff"/><path d="M250.05 400.29a3.84 3.84 0 01-3.67-3.39l-2.75-19.38a3.65 3.65 0 01.7-2.78 3.35 3.35 0 012.24-1.31l19.48-2.54a3.77 3.77 0 014.06 3.13l3.48 19.18a3.89 3.89 0 01-.63 3 3.3 3.3 0 01-2.24 1.35l-20.22 2.74zm16.43-28.43h-.3l-19.48 2.54a2.37 2.37 0 00-1.58.93 2.68 2.68 0 00-.5 2l2.75 19.38a2.8 2.8 0 003 2.51l20.21-2.74a2.31 2.31 0 001.57-.95 2.92 2.92 0 00.46-2.2l-3.49-19.18a2.78 2.78 0 00-2.64-2.29zm4.17 25.14z" fill="#263238"/><path fill="#fff" d="M248.12 391.19l21.62-3.13"/><path d="M248.12 391.69a.5.5 0 01-.07-1l21.62-3.12a.51.51 0 01.56.42.5.5 0 01-.42.57l-21.61 3.12z" fill="#263238"/><path d="M269.18 389.59s-3.55.38-2.9 1.21-.62 1.8-2.87 2.06-2.78 2-3.3 2.26-4.73 1.75-6.12 1.42 1.5-1.42-.07-1.88-5.17-.58-4.77-1.22-1-1.25-1-1.25" fill="#fff"/><path d="M254.46 397.09a2.46 2.46 0 01-.58-.06.91.91 0 01-.75-.58c-.14-.44.19-.79.49-1.1l.18-.2a20.58 20.58 0 00-2.14-.39c-1.82-.26-2.71-.41-3-.94a.66.66 0 010-.64 2.14 2.14 0 00-.77-.53.5.5 0 01.4-.91c.19.08 1.12.51 1.33 1.18a1.07 1.07 0 010 .47 17.58 17.58 0 002.09.39 20 20 0 012.27.41 1.1 1.1 0 01.82.68c.13.48-.24.87-.54 1.18 1.38.12 5-1.12 5.59-1.41a4.13 4.13 0 00.31-.37 4.33 4.33 0 013.15-1.94c1.65-.19 2.44-.72 2.58-1a.19.19 0 00-.05-.21.79.79 0 01-.12-.8c.31-.74 2-1.07 3.36-1.22a.51.51 0 01.56.45.5.5 0 01-.45.55 8.7 8.7 0 00-2.45.56 1.17 1.17 0 01.07 1.06c-.35.83-1.62 1.44-3.39 1.64a3.39 3.39 0 00-2.42 1.54 2.06 2.06 0 01-.66.66 21.07 21.07 0 01-5.88 1.53zm-.49-1.87z" fill="#263238"/><path d="M267.73 385.28s-2-7.23-4.34-8.3" fill="#fff"/><path d="M267.73 385.78a.5.5 0 01-.48-.37c-.54-2-2.33-7.18-4.07-8a.5.5 0 01-.24-.67.49.49 0 01.66-.24c2.47 1.13 4.4 7.85 4.61 8.61a.5.5 0 01-.34.62z" fill="#263238"/><path d="M262.22 376.81a1.72 1.72 0 00-2.11 1.31" fill="#fff"/><path d="M260.11 378.62h-.14a.5.5 0 01-.34-.62 2.18 2.18 0 012.71-1.65.49.49 0 01.36.6.5.5 0 01-.61.36 1.22 1.22 0 00-1.5 1 .5.5 0 01-.48.31z" fill="#263238"/><path d="M262.56 375.61s-2.09-1-3.17-.61" fill="#fff"/><path d="M262.56 376.11a.59.59 0 01-.22-.05 4.81 4.81 0 00-2.77-.6.49.49 0 01-.65-.28.5.5 0 01.28-.64c1.26-.5 3.35.51 3.58.62a.5.5 0 01-.22.95z" fill="#263238"/><path d="M263.32 375.61s.48-1.83 1.82-1.83" fill="#fff"/><path d="M263.32 376.11a.3.3 0 01-.13 0 .5.5 0 01-.36-.61c0-.09.6-2.2 2.3-2.2a.5.5 0 010 1c-.92 0-1.33 1.44-1.33 1.46a.5.5 0 01-.48.35z" fill="#263238"/><path d="M264.3 376a3.82 3.82 0 012.46.72" fill="#fff"/><path d="M266.76 377.26a.49.49 0 01-.3-.1 3.31 3.31 0 00-2.11-.62.5.5 0 01-.1-1 4.28 4.28 0 012.81.82.5.5 0 01.1.7.51.51 0 01-.4.2z" fill="#263238"/><path d="M247.47 385.28c.35-.31 2.46-6 3.71-5.62s4.18 3.37 5.18 3.52 3.56 3.05 3.56 3.05" fill="#fff"/><path d="M259.92 386.73a.51.51 0 01-.37-.17c-1.17-1.32-2.75-2.8-3.26-2.88a8.24 8.24 0 01-2.79-1.82 12.62 12.62 0 00-2.47-1.73c-.39.07-1.23 1.45-2.47 4.12a5.25 5.25 0 01-.75 1.4.5.5 0 01-.7-.72 11.32 11.32 0 00.54-1.1c1.33-2.86 2.45-5 3.67-4.65a11.19 11.19 0 012.8 1.9 11 11 0 002.32 1.61c1.1.17 3.23 2.5 3.86 3.21a.49.49 0 01-.05.7.46.46 0 01-.33.13z" fill="#263238"/><path d="M258.66 383.18a3.52 3.52 0 011-1.34c.63-.37 4.71 3.3 5.37 3.44" fill="#fff"/><path d="M265.08 385.78h-.11a8.2 8.2 0 01-2.16-1.44 18.33 18.33 0 00-2.93-2 3 3 0 00-.76 1.06.5.5 0 01-.92-.41 3.85 3.85 0 011.26-1.57c.58-.34 1.41.17 4 2.12a16.2 16.2 0 001.78 1.26.5.5 0 01.38.59.51.51 0 01-.54.39z" fill="#263238"/><path d="M246.3 383.54l-.89-6a2.17 2.17 0 011.81-2.53l12.1-1.45s-1.47 1-1.67 1.71 2.35.73 2.35.73-1.33 1.22-1.12 2.09.95 1.74 1.3 1.52 1.64-2.39 2.5-1.52 3.29 6.1 3.29 6.1-4.15-2.37-5.41-2.93-2.84.94-2.84.94-2.93.11-4.24-1.88-3-2.53-4.27-1.52-2.91 4.74-2.91 4.74zm14.04-10.49a11.79 11.79 0 012.15 1.28s1.73-1.83 2.83-1.67 1.87 1.49 1.3 1.67a5.7 5.7 0 00-1.17.57s2.24.87 2.3 1.86-1.28 1-1.63 1c0 0 2.71 6.2 3 8.46l1.58-.32-2-11.79a2.21 2.21 0 00-2.38-1.86zm-10.17 18.65l19-3s-3.92 1-3.77 1.5.32 1.56-1.17 1.5-4.3 1.22-4.36 1.8-4 2.46-4.37 2.07.78-1.42-.25-1.81-4.66.17-4.75-.69a6.13 6.13 0 00-.33-1.37z" fill="#ff0" opacity=".6"/><path d="M325.36 345.13l-14.88-9.93a2.51 2.51 0 01-1-3.34l1.72-2.75a2.33 2.33 0 013.3-.49l14.8 9.73a2.63 2.63 0 011.06 3.4l-1.67 2.87a2.33 2.33 0 01-3.33.51z" fill="#fff"/><path d="M326.92 346.12a3.27 3.27 0 01-1.83-.58l-14.89-9.93a3 3 0 01-1.09-4l1.72-2.75a2.5 2.5 0 011.61-1.12 3.22 3.22 0 012.39.48l14.79 9.73a3.15 3.15 0 011.22 4.08l-1.67 2.86a2.46 2.46 0 01-1.61 1.17 2.8 2.8 0 01-.64.06zm-13.86-17.46a1.75 1.75 0 00-.4 0 1.55 1.55 0 00-1 .67l-1.66 2.79a2 2 0 00.79 2.66l14.89 9.93a2.15 2.15 0 001.69.36 1.49 1.49 0 001-.7l1.63-2.87a2.15 2.15 0 00-.91-2.74L314.28 329a2.24 2.24 0 00-1.22-.34z" fill="#263238"/><path d="M311.61 333.09c.79-1.25 1.95-2.84 1.95-2.84s1.65 2 2.16 2.13.82-.23 1.86.26.34.29 1.95 1.68a11.47 11.47 0 004.35 2.45c.71.07 1.27-.58 1.92.39s1.69 2.41 1.69 2.41l.22 1.38-1.51 2s-3.15-1.52-3-2.65-2.64-1.45-2.64-1.45-1.83.37-2.12-.48a10.05 10.05 0 00-1.34-2.12h1.67l-1.94-1.89-3.49.58z" fill="#ff0" opacity=".6"/><path d="M314.43 334.82a.53.53 0 01-.38-.18 4.65 4.65 0 00-1.13-1.06.45.45 0 01-.44-.26c-.13-.21-.33-.53 1-2.89a.5.5 0 01.87.5 15.76 15.76 0 00-.9 1.81 5.76 5.76 0 011.36 1.25.51.51 0 01-.07.71.47.47 0 01-.31.12zM318 334h-.12a.76.76 0 01-.48-.55.33.33 0 00-.22-.05c-.15 0-.28.18-.45.37a.5.5 0 01-.75-.67 1.91 1.91 0 011-.68 1.22 1.22 0 011.36.66l.1.07a.5.5 0 010 .71.6.6 0 01-.44.14zm1.78 4.83a.78.78 0 01-.48-.17.89.89 0 01-.3-.66 1.2 1.2 0 01.34-.8 5.75 5.75 0 011.08-.95 4.27 4.27 0 01-.83-1l-.06-.11c-.17.09-.3.14-.44.2a2.51 2.51 0 00-.59.31.44.44 0 00-.18.51.5.5 0 11-.86.5 1.41 1.41 0 01.42-1.8 3.18 3.18 0 01.83-.44l.39-.18a1 1 0 01.54-.14 1.13 1.13 0 01.82.65 3.42 3.42 0 001.12 1.15.48.48 0 01.23.44.52.52 0 01-.27.43 4.92 4.92 0 00-1.45 1.11.51.51 0 01.27.35.49.49 0 01-.38.59.34.34 0 01-.2.01zm3.32 1.84a.5.5 0 01-.43-.25.48.48 0 01.17-.68c.3-.18.4-.64.52-1.13l.09-.38a.77.77 0 01.37-.52.89.89 0 01.85.07l2 1.07a.51.51 0 01.2.68.49.49 0 01-.67.2l-1.84-1v.09a2.53 2.53 0 01-1 1.76.59.59 0 01-.26.09zm1.69 2.58a.49.49 0 01-.49-.41 1.37 1.37 0 01.62-1.37 3.18 3.18 0 011.14-.42.52.52 0 01.6.39.51.51 0 01-.39.59 2.45 2.45 0 00-.79.26.43.43 0 00-.2.38.48.48 0 01-.4.57z" fill="#263238"/><path d="M286.52 219.63c-.85.56-3.53-.28-3.53-.28s-3 1.88-5.57 1.64c0 0-1.34 1.72-5.73-1.11a2.48 2.48 0 01-3.69 1.52c-2.9-1.26-4.44-5.89-2.49-6.85 2.33-1.15 4.53 1.26 4.53 1.26a3.13 3.13 0 012.7-2.41 5.32 5.32 0 013.1 1s.07-1 1.61-1a4 4 0 013.38 2.13s.43-2.13 1.8-2.13a4.47 4.47 0 013.84 2.69" fill="#fff"/><path d="M269.42 222.22a4 4 0 01-1.59-.36 6.7 6.7 0 01-3.66-5.48 2.28 2.28 0 011.15-2.28 4.21 4.21 0 014.54.84 3.45 3.45 0 012.87-2 5.35 5.35 0 012.91.78 2.08 2.08 0 011.85-.78 4.23 4.23 0 013.22 1.53 2.26 2.26 0 012-1.53 5 5 0 014.31 3 .5.5 0 01-.93.39 3.93 3.93 0 00-3.38-2.38c-.92 0-1.31 1.71-1.31 1.73a.51.51 0 01-.43.4.48.48 0 01-.51-.29 3.45 3.45 0 00-2.94-1.84c-1 0-1.09.47-1.1.57a.54.54 0 01-.3.4.5.5 0 01-.5-.05 4.81 4.81 0 00-2.76-.92 2.61 2.61 0 00-2.25 2 .5.5 0 01-.36.37.52.52 0 01-.5-.14s-2-2.12-3.94-1.15a1.38 1.38 0 00-.59 1.35 5.68 5.68 0 003.05 4.59 2.35 2.35 0 001.92.13 2.29 2.29 0 001.07-1.33.52.52 0 01.3-.33.51.51 0 01.45.05c3.86 2.49 5.07 1.22 5.08 1.21a.57.57 0 01.43-.18c2.36.22 5.23-1.55 5.26-1.57a.54.54 0 01.41 0c1.18.37 2.7.6 3.11.34a.5.5 0 01.69.15.49.49 0 01-.15.69c-.89.58-3 .07-3.73-.16a10.91 10.91 0 01-5.45 1.61c-.55.45-2.17 1.22-5.69-.89a3 3 0 01-1.35 1.36 2.61 2.61 0 01-1.2.17z" fill="#263238"/><path d="M264.07 200.53c-.83 5.13-5.76 10.18-6.12 12.87s4.72 4.92 5.62 5.11 3.94 2.42 5 0-4.37-3.54-4.37-3.54 8.09-2.38 8.55-4.26c0 0 7 2.63 11.42 0s1.74-5.62-5.71-10.18" fill="#fff"/><path d="M266.92 220.13a6.91 6.91 0 01-2.71-.82 4.45 4.45 0 00-.75-.31c-1-.2-6.42-2.55-6-5.67.17-1.26 1.19-2.88 2.36-4.76 1.55-2.47 3.31-5.28 3.77-8.12a.5.5 0 01.57-.41.49.49 0 01.41.57c-.48 3-2.38 6.06-3.9 8.49-1.12 1.78-2.08 3.32-2.22 4.36-.29 2.21 4.31 4.37 5.23 4.56a5.37 5.37 0 011 .38c.8.38 2 .94 2.78.65a1.28 1.28 0 00.7-.74.9.9 0 000-.83c-.57-1.1-3.08-1.83-4-2a.5.5 0 010-1c3.76-1.1 8-2.91 8.2-3.9a.49.49 0 01.26-.32.49.49 0 01.41 0c.06 0 6.81 2.51 11 0 1.27-.76 1.89-1.51 1.9-2.32 0-2.06-4.07-4.83-7.62-7a.5.5 0 01-.16-.69.49.49 0 01.68-.16c5.77 3.52 8.11 5.8 8.1 7.86 0 1.18-.79 2.22-2.39 3.17-4 2.37-9.82.72-11.43.18-1 1.45-4.76 2.86-7.05 3.63a5.52 5.52 0 013 2.07 1.89 1.89 0 010 1.69 2.25 2.25 0 01-1.26 1.27 2.33 2.33 0 01-.88.17zm16.08-.28a.5.5 0 01-.3-.11 6.84 6.84 0 01-2.33-4.15.51.51 0 01.43-.56.52.52 0 01.57.43 5.81 5.81 0 001.93 3.54.5.5 0 01.09.7.51.51 0 01-.39.15z" fill="#263238"/><path d="M277.29 220.13a.51.51 0 01-.43-.25c-.08-.13-2-3.36-1.48-5.57a.5.5 0 011 .22c-.41 1.82 1.35 4.81 1.36 4.85a.49.49 0 01-.17.68.48.48 0 01-.28.07zm-5.6.25a.47.47 0 01-.25-.07c-1.82-1-1.87-4.36-1.87-4.5a.5.5 0 01.5-.5.51.51 0 01.5.49c0 .81.27 3 1.37 3.64a.51.51 0 01.19.68.51.51 0 01-.44.26z" fill="#263238"/><path d="M181.25 203.67c-.19 1.42-.46 2.87-.8 4.36-5 22.1-11.06 36.16-11.06 36.16s1.89 14.06-16.57 14.32-22.53-20.4-16.58-40.68c0 0 3.52-18.74 11.3-31.08 3.08-4.91 6.84-8.8 11.31-10.12 14.67-4.32 25.15 7.5 22.4 27.04z" fill="#757575"/><path d="M152.48 259c-6.14 0-11-2.25-14.33-6.69-5.58-7.35-6.5-20.62-2.39-34.63 0-.14 3.62-18.93 11.36-31.21 3.53-5.62 7.43-9.1 11.59-10.33 6.29-1.85 12.12-.83 16.41 2.87 5.72 4.93 8.13 13.94 6.63 24.72-.19 1.4-.46 2.84-.81 4.4a235.52 235.52 0 01-11 36.12 13.2 13.2 0 01-3 9.54c-2.9 3.37-7.63 5.12-14.07 5.21zm12.19-82.76a20 20 0 00-5.68.86c-3.92 1.16-7.63 4.49-11 9.91-7.64 12.11-11.19 30.72-11.23 30.9-4 13.76-3.18 26.69 2.22 33.8 3.23 4.25 7.87 6.38 13.86 6.29s10.63-1.72 13.34-4.86a12.33 12.33 0 002.74-8.89.63.63 0 010-.27c.06-.14 6.07-14.28 11-36.07.35-1.53.61-2.94.79-4.32 1.46-10.44-.83-19.12-6.28-23.82a14.69 14.69 0 00-9.76-3.52z" fill="#263238"/><g clip-path="url(#freepik--clip-path-9--inject-158)"><path d="M181.25 203.67c-3.18 9.51-10.19 16.57-19.22 15.68-13.56-1.33-16.72-19.11-14.49-32.6 3.08-4.91 6.84-8.8 11.31-10.12 14.67-4.32 25.15 7.5 22.4 27.04z" fill="#fff" opacity=".2"/><path d="M169.39 244.19s1.89 14.06-16.57 14.32h-1.43c-2.07-1.56-4-3.19-5.61-4.67-9.14-8.17-5.37-8.7-2.45-7.38s18.18-2.64 12-5.18-14-18.4-11.47-21.37 14.76 12 20.53 12.07c3.47 0 9-6.33 12.92-11.4a205.38 205.38 0 01-7.92 23.61z" opacity=".2"/></g><path d="M166 221.54a18.22 18.22 0 01-6.34-1.21c-11.85-4.39-15.88-13.51-13.91-31.49a.5.5 0 01.55-.44.5.5 0 01.44.55c-1.9 17.43 1.94 26.24 13.26 30.44 4.75 1.76 9.17 1.5 12.81-.76 4.87-3 7.09-8.61 7.5-12.49a.49.49 0 01.55-.44.51.51 0 01.45.55c-.44 4.1-2.79 10-8 13.23a13.71 13.71 0 01-7.31 2.06zM149.3 256a.49.49 0 01-.4-.21.5.5 0 01.11-.7c2-1.48 2-7.89 2-12.57 0-1.46 0-2.83.05-3.88.26-4.56 5.93-17.34 6.17-17.88a.5.5 0 01.66-.26.51.51 0 01.26.66c-.06.13-5.85 13.16-6.09 17.54-.06 1-.05 2.38-.05 3.81 0 5.17 0 11.61-2.41 13.39a.54.54 0 01-.3.1z" fill="#263238"/><path d="M155.33 256a.5.5 0 01-.38-.82c1.59-1.91.8-8.92.28-13.56a36.48 36.48 0 01-.4-5.25c.26-3.07 5.6-14.4 5.82-14.88a.5.5 0 01.67-.24.49.49 0 01.24.66c-.06.12-5.49 11.65-5.73 14.54a36.59 36.59 0 00.39 5.06c.61 5.38 1.36 12.07-.51 14.31a.53.53 0 01-.38.18z" fill="#263238"/><path d="M153.94 251.66a19.77 19.77 0 01-6.05-1 .51.51 0 01-.32-.63.5.5 0 01.63-.32c12.08 3.87 20.73-5.79 20.82-5.89a.5.5 0 01.7 0 .49.49 0 01.05.7c-.07.09-6.38 7.14-15.83 7.14zm5.65-12.45c-10.5 0-18.42-15.45-18.77-16.14a.49.49 0 01.22-.67.5.5 0 01.67.22c.09.17 8.75 17.07 19.32 15.48a.51.51 0 01.57.42.5.5 0 01-.42.57 10.84 10.84 0 01-1.59.12zm-.87-22.92a.39.39 0 01-.15 0c-8.56-2.74-11.73-15.84-9.76-26.42a16.64 16.64 0 0112.2-13.2.5.5 0 01.59.39.51.51 0 01-.39.59A15.38 15.38 0 00149.79 190c-1.89 10.19 1.3 22.79 9.08 25.28a.5.5 0 01.33.63.5.5 0 01-.48.38zm9.42-.29a.49.49 0 01-.5-.49.5.5 0 01.49-.51 10.45 10.45 0 008.14-3.6c5.33-6.23 3.7-18.51 3.68-18.63a.5.5 0 111-.14c.07.52 1.71 12.84-3.91 19.42a11.44 11.44 0 01-8.88 3.95z" fill="#263238"/><path d="M164.37 191.45c16.34-39.17 16.08-73.59 30.39-91.68 0 0 3.45-1 5.87 0 0 0-9.84 15.33-13.13 27.89s-9.82 49-18.11 65.05" fill="#757575"/><path d="M169.39 193.21a.46.46 0 01-.22-.06.49.49 0 01-.22-.67c6.21-12 11.54-36.06 15.06-51.95 1.18-5.31 2.2-9.89 3-13 2.93-11.17 11.09-24.66 12.85-27.49a10.44 10.44 0 00-4.82.17c-7.64 9.75-11.16 24.62-15.24 41.81-3.52 14.87-7.51 31.72-15 49.62a.5.5 0 01-.92-.38c7.44-17.83 11.42-34.64 14.93-49.47 4.12-17.39 7.68-32.4 15.53-42.33a.49.49 0 01.25-.17c.15 0 3.65-1.06 6.2 0a.51.51 0 01.23.73c-.1.15-9.83 15.41-13.06 27.75-.81 3.08-1.83 7.66-3 13-3.54 15.94-8.88 40-15.15 52.19a.5.5 0 01-.42.25z" fill="#263238"/><g clip-path="url(#freepik--clip-path-10--inject-158)"><path d="M164.37 191.45c16.34-39.17 16.08-73.59 30.39-91.68 0 0 3.45-1 5.87 0 0 0-9.84 15.33-13.13 27.89s-9.82 49-18.11 65.05" fill="#fff" opacity=".2"/></g><path d="M204.35 62.11c6.48-9.8 19.67-12.43 30.22-4.52s9.65 32.4 20.27 37.29 19.81-4.64 25 5c0 0-7-5.78-14.14 1.38-5.69 5.68-13 2.78-13 2.78s3.51 6.64 15.79 3.62c0 0-8.51 12.56-26.71 11.68-16-.77-24.26-9.42-24.26-9.42s0 8 11.44 13.24c0 0-9.67 2.08-20.47-8.09-9.12-8.58-7.79-17.58-7.79-17.58s-8.32 7.16 0 15.82c0 0-10.54-1-11.16-10.92-.37-5.72 6.28-12.06 7.41-17.33 0 0-17.08 7.45-18.21 14.82a6.71 6.71 0 004.33 7.78c-6.84 1.38-16.14-10.62 0-19.62s12.75-16.5 15.57-20.85 5.71-5.08 5.71-5.08z" fill="#263238"/><path d="M240.29 135.8a.51.51 0 01-.31-.11c-3.84-3-6.77-13.11-6.89-13.54a.5.5 0 111-.28c0 .11 3 10.23 6.55 13a.5.5 0 01-.31.9zm-45.88-1.8a.49.49 0 01-.5-.49.5.5 0 01.49-.51c2.1 0 6.78-8.81 9.24-14.34a.5.5 0 01.92.41c-1.11 2.48-6.79 14.87-10.14 14.93zm8.68 24.71h-.31a.5.5 0 01-.48-.52.5.5 0 01.52-.48h.28c9.07 0 24.59-18.05 24.75-18.23a.5.5 0 11.76.65c-.61.77-15.98 18.58-25.52 18.58zM233.57 169a.5.5 0 01-.45-.28 34 34 0 00-8.36-10.13.5.5 0 01-.09-.7.51.51 0 01.71-.09 34.47 34.47 0 018.62 10.5.5.5 0 01-.23.67.54.54 0 01-.2.03zm-40.04 2.17a.52.52 0 01-.38-.17.51.51 0 01.06-.71c.33-.28 8.31-6.85 21-5.06 12.51 1.76 14.23 3.75 14.38 4a.5.5 0 01-.82.57c0-.05-1.75-1.87-13.7-3.55a27.42 27.42 0 00-20.27 4.84.48.48 0 01-.27.08z" fill="#263238"/><g opacity=".2" fill="#fff"><path d="M236.69 105.33a34.12 34.12 0 01-22.51-8.8c-10.1-9.09-11.1-19.29-11.06-23.26 0-4.32 1.25-8 3.16-9.69a.5.5 0 01.65.76c-1.67 1.45-2.77 5-2.81 8.94 0 3.83.93 13.69 10.73 22.51 9 8.09 20.53 9.75 28 7.8 3.41-.9 5.74-2.51 6.39-4.43a.5.5 0 01.63-.32.5.5 0 01.31.64c-.75 2.24-3.33 4.1-7.08 5.08a25.21 25.21 0 01-6.41.77zm-21.18 10.26a.59.59 0 01-.25-.07c-13.55-8.2-10.5-25.15-10.47-25.32a.5.5 0 011 .19c0 .16-2.95 16.44 10 24.27a.5.5 0 01.17.69.51.51 0 01-.45.24zm43.84-16.78c-11.47 0-17-14.56-21.23-25.51-1.77-4.63-3.3-8.63-5-10.93a12.75 12.75 0 00-9.12-5.43 17.07 17.07 0 00-12.74 4.19.5.5 0 01-.71 0 .49.49 0 010-.7A18.15 18.15 0 01224.07 56a13.72 13.72 0 019.93 5.78c1.73 2.41 3.28 6.47 5.08 11.17 4.79 12.54 10.76 28.16 24.37 24.25a.5.5 0 01.28 1 15.85 15.85 0 01-4.38.61z"/><path d="M240.3 100.75c-5.25 0-9.34-3.87-14.06-10.15-2.36-3.15-3.45-7.89-4.51-12.47-1.46-6.38-2.85-12.4-7.35-13.69a.48.48 0 01-.34-.61.5.5 0 01.61-.35c5.07 1.45 6.52 7.75 8.06 14.42 1 4.48 2.1 9.12 4.33 12.1 5.77 7.68 10.51 11.59 17.68 8.85a.5.5 0 01.65.29.49.49 0 01-.29.64 13.23 13.23 0 01-4.78.97zm9.31 13.98c-10.92 0-20.06-6-20.18-6.08a.51.51 0 01-.14-.7.5.5 0 01.7-.13c.15.1 15.33 10.05 29.68 3.91a.5.5 0 01.4.92 26.47 26.47 0 01-10.46 2.08zM187.5 88.65a.5.5 0 01-.46-.3.51.51 0 01.27-.66c15-6.33 11.63-15 11.48-15.4a.51.51 0 01.27-.65.49.49 0 01.65.27c0 .09 4 10-12 16.71a.69.69 0 01-.21.03z"/></g></g></svg>