<svg xmlns="http://www.w3.org/2000/svg" viewBox="0 0 500 500"><defs><clipPath id="freepik--clip-path--inject-162"><path d="M261.58 222.25s1-11.66-5.32-20.27-17.23-12.16-29.39-7.35-13.43 17-13.17 26.35 3.29 26.09 6.58 31.92 9.12 12.66 17.74 10.89 18-13.68 20.26-19a43.09 43.09 0 002.79-8.11s8.36-4.81 8.61-10.89-3.54-12.66-8.1-3.54z" fill="#fff" stroke="#263238" stroke-linecap="round" stroke-linejoin="round"/></clipPath><clipPath id="freepik--clip-path-2--inject-162"><path d="M214.46 226.3s-2.79-4.81-4.82-.25 6.08 15.19 7.6 13.42-2.78-13.17-2.78-13.17z" fill="#ff0" stroke="#263238" stroke-linecap="round" stroke-linejoin="round"/></clipPath><clipPath id="freepik--clip-path-3--inject-162"><path d="M129.74 409.53s2.39-8.94 6.19-23.89S163 277.47 177 262s19.75-.51 34.45 5.32 18.24 6.58 18.24 6.58 3 .51 12.41 5.58 13.43 6.84 21.79 9.37 19.25 8.36 13.93 25.84S258 358.79 257 377.54s4.07 32 4.07 32" fill="#fff" stroke="#263238" stroke-linecap="round" stroke-linejoin="round"/></clipPath><clipPath id="freepik--clip-path-4--inject-162"><path d="M160.71 410.08s16.51-25.45 27.91-43.69 14.94-39.27 19-63.84 12.41-30.4 18-29.64 20.78 7.35 22.8 10.13 4.82 5.07 4.31 20.52-5.57 35.22-14.19 53.2S219 386.4 215 395s-4.81 14.19-4.81 14.19" fill="#ff0" stroke="#263238" stroke-linecap="round" stroke-linejoin="round"/></clipPath><clipPath id="freepik--clip-path-5--inject-162"><path d="M222.56 252.9s3 5.32 0 16.72-12.16 38.5-8.1 56.74 11.14 21.79 20 15.46 14.69-21.28 17-38.76-5.32-19-1.77-29.9 4.31-26.6 4.31-26.6-10.9 6.34-18.75 7.35-12.69-1.01-12.69-1.01z" fill="#fff" stroke="#263238" stroke-linecap="round" stroke-linejoin="round"/></clipPath><clipPath id="freepik--clip-path-6--inject-162"><path d="M229.4 210.59s-.76 9.38-3.8 11.15-10.89 4.31-14.18 1.77-6.84-11.14-4.31-13.17 16.21-4.56 18.49-4.56 3.8 2.03 3.8 4.81z" fill="#fff" stroke="#263238" stroke-linecap="round" stroke-linejoin="round"/></clipPath><clipPath id="freepik--clip-path-7--inject-162"><path d="M238.46 209.25s2.67 9 6 10.13 11.54 2 14.24-1.18 4.41-12.31 1.52-13.78-16.81-1.13-19-.66-3.33 2.76-2.76 5.49z" fill="#fff" stroke="#263238" stroke-linecap="round" stroke-linejoin="round"/></clipPath><clipPath id="freepik--clip-path-8--inject-162"><path d="M205.34 266.58c-.76-.26-3.55-8.36-14.7-12.16s-17.48 3-23 12.66-11.65 27.11-16 35.72S139 317 138.71 328.14s4.82 18 11.15 17.48 11.4-7.6 20.77-20.52 18.49-35.72 18.49-35.72" fill="#fff" stroke="#263238" stroke-linecap="round" stroke-linejoin="round"/></clipPath><clipPath id="freepik--clip-path-9--inject-162"><path d="M142.77 189.06s-9.12 11.65-15.71 17.48-2.28 10.29 0 15.11 6.33 30.74 7.6 39.86-3.29 38.51-4.56 55.23 9.37 31.41 14.44 33.94 8.36-1 14.19-12.66.76-24.58-2.54-39-9.37-38-9.37-38 5.32-1.52 5.83-6.58-1.52-12.92-1.52-12.92 15.45.25 21.53-.76 12.66-2.54 8.1-3.55-8.61 0-17.73-.51a35.78 35.78 0 01-16.25-5.3 35 35 0 0113.7-3.32c6.78-.31 14.21 1.46 18.26.6 3.81-.8 6.54-2.09 5-3.61s-4.33-1-10-2c-3.36-.57-8.65-3.59-13.65-3.61a46.29 46.29 0 00-13 2.05c-1 0 6.41-6.63 9.45-7.39s13.35 3.08 17.66 3.08 9.37-1.52 9.62-3.29 1.78-2.54-4.05-2.79-14.44-3.55-19.5-5.32-8.62-.25-11.66 1.27-10.64 4.3-10.64 4.3l9.72-12.62s10.55 4.52 16.63 4.26 13.43-4.56 10.89-5.82-8.1-.51-17.48-3.3-11.42-7.62-14.96-4.83z" fill="#fff" stroke="#263238" stroke-linecap="round" stroke-linejoin="round"/></clipPath></defs><path d="M415.09 156.88c-3-1.63-4.35-.27-5.44-1.63s3-4.9-5.17-8.44c0 0-.54-7.61-11.7-7.89s-8.16 7.62-11.15 9.53-3.81-1.09-6.8.81-1.64 5.71-4.08 6.26-5.75-2.45-8.75-.52-3 3.54-4.35 3.54-4.08-1.09-5.71 0-3.54 2.45-3.54 2.45h68.83s.85-2.48-2.14-4.11zm-42.46 22.66c-1.59-.87-2.31-.15-2.88-.87s1.58-2.59-2.74-4.47c0 0-.29-4-6.2-4.17s-4.32 4-5.9 5-2-.58-3.6.43-.87 3-2.17 3.31-3-1.29-4.61-.28-1.58 1.87-2.3 1.87-2.16-.58-3 0-1.87 1.3-1.87 1.3h36.45a1.86 1.86 0 00-1.18-2.12zm-246.46-1.68c-1.58-.86-2.31-.14-2.88-.86s1.58-2.59-2.74-4.47c0 0-.29-4-6.19-4.17s-4.33 4-5.91 5-2-.58-3.6.43-.87 3-2.16 3.31-3-1.29-4.61-.28-1.59 1.87-2.31 1.87-2.16-.58-3 0-1.87 1.3-1.87 1.3h36.45a1.87 1.87 0 00-1.18-2.13zm169.57-48.33c-4.18-2.28-6.08-.38-7.6-2.28s4.18-6.84-7.22-11.78c0 0-.76-10.64-16.34-11s-11.4 10.64-15.58 13.3-5.32-1.52-9.5 1.14-2.28 8-5.7 8.74-8-3.42-12.16-.76-4.18 4.94-6.08 4.94-5.7-1.52-8 0-4.94 3.42-4.94 3.42h96.14s1.16-3.44-3.02-5.72z" id="freepik--Clouds--inject-162" fill="#fff"/><g id="freepik--Buildings--inject-162" fill="none" stroke="#263238" stroke-linecap="round" stroke-linejoin="round"><path d="M79.3 329.75h194.48m-154.33.6v7.49H76.3m71.61 3.3H85.59m195.06-11.39H440m-118.6.6v7.49H148.06m286.94 3.3H168.1m124.54-13.49v-47.34h56.63v47.34m-23.38-47.94v-46.44h-29.06v46.74m4.5-46.74s1.79-7.49 10.78-7.49S323.2 233 323.2 233"/><path d="M307.92 225.78v-87.5h15.58l11.98 119.56h18.88v25.77h14.98v10.48h25.77v35.66M323.5 138.28l-.6 88.4m-7.49-88.7v-31.16"/><path d="M362.75 283.61v-40.75h20.68v28.46h7.19m1.49 22.17v-27.86h19.18v60.82m-5.39-59.92v60.22"/><path d="M394.51 265.93v-5.99h11.09v4.79m-5.99-5.69V204.5h11.68v13.49h13.18v30.26"/><path d="M420.28 325.56v-76.41h8.99v75.81m-17.98-106.97v36.55M400.8 204.2v-3.29h6.89v3.29m-4.79-3.59s-.9-2.4 0-2.4h3.3v2.7m-276.86 57.53H90.38v69.21"/><path d="M126.94 247.95H96.38v10.79m5.69-11.39v-12.28h25.88v9.72m-19.29-10.02v-37.46h14.09v37.67m290.04 116.64h-61.73m23.68 11.39H322.6m20.37-8.09h-29.06m45.54-8.09h-10.48m-74.01 5.09h17.98M132.5 364.8h-32.36m-17.85-9.88h19.18m5.69.3h4.2m4.79-6.29H96.08M81.69 372.3h15.42m273.98 0h15.41m-92.36-7.5h-32.36m-90.64-12.88h87.46M129.73 248.36h2.68v10.7h4.01v68.24m-8.47-92.23v-27.74h30.77v51.73m-21.41 5.8h33v63.33"/><path d="M159.16 234.09h18.29v94.54m0-94.54v-36.12h21.85v130.22m-16.5-130.41v-2.94h11.6v2.71m-9.07-2.88V191h6v3.67"/><path d="M199 217.67h20.33v43H247V329"/><path d="M246.67 297h-41v31.67M247 318h22.33v-92.33h32"/><path d="M269.67 233.67H241v26.66m2.33-26.66v-4.34h6V225h16v4h2.34"/></g><g id="freepik--Character--inject-162"><path d="M263.4 191.17c5.08-2.49 10.64-7.38 13.38-17 2.27-7.92 1.32-15.06-2.74-20.66a23.78 23.78 0 00-17.39-9.51.54.54 0 00-.58.53.56.56 0 00.54.58 22.63 22.63 0 0116.53 9.05c3.85 5.31 4.74 12.12 2.58 19.71a27.32 27.32 0 01-6.84 12.13 23.54 23.54 0 004.37-10.48c1.22-7-.05-12.76-3.77-17.18a20.41 20.41 0 00-5.06-4.26c-10.79-10.19-31.58-10.27-44.21-.64-14.9 11.35-18.45 25.54-34.05 45.4s-31.92 34-56.75 34-36.42 43.62-7.1 56.75 83 17 107.83 5.68 38.31-12.77 57.46-44c16.7-27.12-4.03-58.11-24.2-60.1zm5.23-32.08c3.5 4.15 4.68 9.63 3.53 16.27-1.36 7.77-5.17 12-8.88 14.41 3.38-3.85 12.29-15.81 5.88-29.21a23.21 23.21 0 00-1.33-2.34c.27.28.54.56.8.87z" fill="#263238"/><path d="M123 286.48a31.46 31.46 0 007.45 2.43m119-95.35s8-19.4-4.65-27.84c-10.32-6.88-22.78 5.91-26.57 16.45s-11 29.11-32.06 40.08-73.83 16.45-76.78 39.66c-1.51 11.84 4 18.62 9.78 22.43m143.25-112.27a17 17 0 00-.74-5.93m-12.23 27.42c3.58-4.11 9.45-9.53 11.88-16.27" fill="none" stroke="#fff" stroke-linecap="round" stroke-linejoin="round"/><path d="M247.76 192.72s-3.38-18.14-13.08-16.45-4.22 11.81-4.22 11.81M260 199.05s35 15.61 32.49 36.7M277.4 257a41.57 41.57 0 01-5.17 5.72M270.54 205s21.57 24.75 9.69 47.56" fill="none" stroke="#fff" stroke-linecap="round" stroke-linejoin="round"/><path d="M214.46 226.3s-2.79-4.81-4.82-.25 6.08 15.19 7.6 13.42-2.78-13.17-2.78-13.17z" fill="#ff0"/><g clip-path="url(#freepik--clip-path-2--inject-162)"><path d="M214.46 226.3s-2.79-4.81-4.82-.25 6.08 15.19 7.6 13.42-2.78-13.17-2.78-13.17z" fill="#fff" opacity=".5"/></g><path d="M214.46 226.3s-2.79-4.81-4.82-.25 6.08 15.19 7.6 13.42-2.78-13.17-2.78-13.17z" fill="none" stroke="#263238" stroke-linecap="round" stroke-linejoin="round"/><path d="M129.74 409.53s2.39-8.94 6.19-23.89S163 277.47 177 262s19.75-.51 34.45 5.32 18.24 6.58 18.24 6.58 3 .51 12.41 5.58 13.43 6.84 21.79 9.37 19.25 8.36 13.93 25.84S258 358.79 257 377.54s4.07 32 4.07 32" fill="#fff"/><g clip-path="url(#freepik--clip-path-3--inject-162)"><path d="M186 273.81c16 3.42 28.94 30.46 28.94 30.46l23.61-18.66c.11-.34 0-3.67-.33-8.14-6.33-3.17-8.52-3.55-8.52-3.55s-3.55-.76-18.24-6.58S190.9 246.56 177 262c-2.33 2.58-4.92 7.34-7.64 13.54a25.49 25.49 0 0116.64-1.73z" fill="#ff0"/><path d="M186 273.81c16 3.42 28.94 30.46 28.94 30.46l23.61-18.66c.11-.34 0-3.67-.33-8.14-6.33-3.17-8.52-3.55-8.52-3.55s-3.55-.76-18.24-6.58S190.9 246.56 177 262c-2.33 2.58-4.92 7.34-7.64 13.54a25.49 25.49 0 0116.64-1.73z" fill="#fff" opacity=".5"/><path d="M180.65 303.87s1 4.22-10.54 34.25 14.75 7.91 3.69 25.3-43.74 36.36-46.9 36.36-6.85-59-4.22-62.18 18.54-28.71 33.51-38.6 24.46 4.87 24.46 4.87z" fill="#ff0"/><path d="M180.65 303.87s1 4.22-10.54 34.25 14.75 7.91 3.69 25.3-43.74 36.36-46.9 36.36-6.85-59-4.22-62.18 18.54-28.71 33.51-38.6 24.46 4.87 24.46 4.87z" fill="#fff" opacity=".5"/><path d="M264.43 319.15s1.05 6.85-1.58 21.08-8.43 35.83-15.81 47.43-10.54 10-10.54 10 4.74-22.66 11.59-34.78 15.29-35.29 16.34-43.73z" fill="#ff0"/><path d="M264.43 319.15s1.05 6.85-1.58 21.08-8.43 35.83-15.81 47.43-10.54 10-10.54 10 4.74-22.66 11.59-34.78 15.29-35.29 16.34-43.73z" fill="#fff" opacity=".5"/></g><path d="M129.74 409.53s2.39-8.94 6.19-23.89S163 277.47 177 262s19.75-.51 34.45 5.32 18.24 6.58 18.24 6.58 3 .51 12.41 5.58 13.43 6.84 21.79 9.37 19.25 8.36 13.93 25.84S258 358.79 257 377.54s4.07 32 4.07 32" fill="none" stroke="#263238" stroke-linecap="round" stroke-linejoin="round"/><path d="M160.71 410.08s16.51-25.45 27.91-43.69 14.94-39.27 19-63.84 12.41-30.4 18-29.64 20.78 7.35 22.8 10.13 4.82 5.07 4.31 20.52-5.57 35.22-14.19 53.2S219 386.4 215 395s-4.81 14.19-4.81 14.19" fill="#ff0"/><g clip-path="url(#freepik--clip-path-4--inject-162)"><path d="M214.9 304.27l23.61-18.66c.11-.35-.06-3.83-.35-8.47-4.71-2.06-9.8-3.85-12.56-4.23-4.9-.67-11.95 3.76-16.34 21.54a98.16 98.16 0 015.64 9.82z" fill="#ff0"/><path d="M214.9 304.27l23.61-18.66c.11-.35-.06-3.83-.35-8.47-4.71-2.06-9.8-3.85-12.56-4.23-4.9-.67-11.95 3.76-16.34 21.54a98.16 98.16 0 015.64 9.82z" opacity=".3"/></g><path d="M160.71 410.08s16.51-25.45 27.91-43.69 14.94-39.27 19-63.84 12.41-30.4 18-29.64 20.78 7.35 22.8 10.13 4.82 5.07 4.31 20.52-5.57 35.22-14.19 53.2S219 386.4 215 395s-4.81 14.19-4.81 14.19M265.12 314c-1.32 25.56-17.12 46.51-24.82 70.2a118.92 118.92 0 00-5.14 21.78m23.12-36.3S255.5 374 244.6 373" fill="none" stroke="#263238" stroke-linecap="round" stroke-linejoin="round"/><path d="M222.56 252.9s3 5.32 0 16.72-12.16 38.5-8.1 56.74 11.14 21.79 20 15.46 14.69-21.28 17-38.76-5.32-19-1.77-29.9 4.31-26.6 4.31-26.6-10.9 6.34-18.75 7.35-12.69-1.01-12.69-1.01z" fill="#fff"/><g clip-path="url(#freepik--clip-path-5--inject-162)"><path d="M252.52 247.37c-3.22 1.74-11.17 5.75-17.29 6.54-7.85 1-12.67-1-12.67-1s3 5.32 0 16.72c-2.35 8.84-8.36 27.12-9.05 43.38 1.23-8.15 3.61-15.5 5.83-15.5 3.67 0 11.46 6.87 11.46 5s-3.21-4.59-4.58-6 9.17-10.55 16-21.09a153.49 153.49 0 0011-20.81c.16-1.39.28-2.66.38-3.76zm-28.22 96.82c2.22.89 4.67.62 7.31-.65.8-3.66.1-7.11-1.27-11.2-1.74-5.23-3.49 6.26-6.04 11.85z" fill="#ff0"/><path d="M252.52 247.37c-3.22 1.74-11.17 5.75-17.29 6.54-7.85 1-12.67-1-12.67-1s3 5.32 0 16.72c-2.35 8.84-8.36 27.12-9.05 43.38 1.23-8.15 3.61-15.5 5.83-15.5 3.67 0 11.46 6.87 11.46 5s-3.21-4.59-4.58-6 9.17-10.55 16-21.09a153.49 153.49 0 0011-20.81c.16-1.39.28-2.66.38-3.76zm-28.22 96.82c2.22.89 4.67.62 7.31-.65.8-3.66.1-7.11-1.27-11.2-1.74-5.23-3.49 6.26-6.04 11.85z" opacity=".5" fill="#fff"/></g><path d="M222.56 252.9s3 5.32 0 16.72-12.16 38.5-8.1 56.74 11.14 21.79 20 15.46 14.69-21.28 17-38.76-5.32-19-1.77-29.9 4.31-26.6 4.31-26.6-10.9 6.34-18.75 7.35-12.69-1.01-12.69-1.01z" fill="none" stroke="#263238" stroke-linecap="round" stroke-linejoin="round"/><path d="M261.58 222.25s1-11.66-5.32-20.27-17.23-12.16-29.39-7.35-13.43 17-13.17 26.35 3.29 26.09 6.58 31.92 9.12 12.66 17.74 10.89 18-13.68 20.26-19a43.09 43.09 0 002.79-8.11s8.36-4.81 8.61-10.89-3.54-12.66-8.1-3.54z" fill="#fff"/><path d="M239.59 261.53c-5.27 1.21-9.32-5.27-4.86-9.73s5.27-5.68 6.08-8.92-3.24 1.62-6.89 1.62-4.87-4.05-4.87-4.05-2-8.52 2.38-14.91 0-4.55-2.78-7.48 0-1.13 4-5.06-1.22-9 4.87-13.09 14.18-1.62 14.18-1.62l.25-.78c-6.43-5.21-15.37-6.74-25.13-2.88-12.16 4.82-13.43 17-13.17 26.35s3.29 26.09 6.58 31.92 9.12 12.66 17.74 10.89c5.36-1.1 11-6.14 15.08-11.07-3.85 3.01-9.47 7.88-13.46 8.81z" fill="#ff0"/><path d="M239.59 261.53c-5.27 1.21-9.32-5.27-4.86-9.73s5.27-5.68 6.08-8.92-3.24 1.62-6.89 1.62-4.87-4.05-4.87-4.05-2-8.52 2.38-14.91 0-4.55-2.78-7.48 0-1.13 4-5.06-1.22-9 4.87-13.09 14.18-1.62 14.18-1.62l.25-.78c-6.43-5.21-15.37-6.74-25.13-2.88-12.16 4.82-13.43 17-13.17 26.35s3.29 26.09 6.58 31.92 9.12 12.66 17.74 10.89c5.36-1.1 11-6.14 15.08-11.07-3.85 3.01-9.47 7.88-13.46 8.81z" fill="#fff" opacity=".5"/><path d="M261.58 222.25s1-11.66-5.32-20.27-17.23-12.16-29.39-7.35-13.43 17-13.17 26.35 3.29 26.09 6.58 31.92 9.12 12.66 17.74 10.89 18-13.68 20.26-19a43.09 43.09 0 002.79-8.11s8.36-4.81 8.61-10.89-3.54-12.66-8.1-3.54z" fill="none" stroke="#263238" stroke-linecap="round" stroke-linejoin="round"/><path d="M229.4 210.59s-.76 9.38-3.8 11.15-10.89 4.31-14.18 1.77-6.84-11.14-4.31-13.17 16.21-4.56 18.49-4.56 3.8 2.03 3.8 4.81z" fill="#fff"/><g clip-path="url(#freepik--clip-path-6--inject-162)"><path d="M210.6 222.75a7.1 7.1 0 00.82.76c3.29 2.53 11.14 0 14.18-1.77s3.8-11.15 3.8-11.15a6.78 6.78 0 00-.26-1.91c-12.33 3.96-16.87 10.25-18.54 14.07z" fill="#ff0"/></g><path d="M229.4 210.59s-.76 9.38-3.8 11.15-10.89 4.31-14.18 1.77-6.84-11.14-4.31-13.17 16.21-4.56 18.49-4.56 3.8 2.03 3.8 4.81z" fill="none" stroke="#263238" stroke-linecap="round" stroke-linejoin="round"/><path d="M238.46 209.25s2.67 9 6 10.13 11.54 2 14.24-1.18 4.41-12.31 1.52-13.78-16.81-1.13-19-.66-3.33 2.76-2.76 5.49z" fill="#fff"/><g clip-path="url(#freepik--clip-path-7--inject-162)"><path d="M258.71 218.2c2.18-2.54 3.71-9 2.71-12.14-11.18.1-18.17 4.45-21.48 7.2 1.09 2.57 2.71 5.51 4.53 6.12 3.34 1.11 11.53 1.98 14.24-1.18z" fill="#ff0"/></g><path d="M238.46 209.25s2.67 9 6 10.13 11.54 2 14.24-1.18 4.41-12.31 1.52-13.78-16.81-1.13-19-.66-3.33 2.76-2.76 5.49zm-8.8-.68a6.42 6.42 0 018.61-1.52m-4.81 2.15s1.52 1.26-.76 3.8-4.81 3.29-4 5.06 4.31 3 5.07 3.8" fill="none" stroke="#263238" stroke-linecap="round" stroke-linejoin="round"/><path d="M250.94 227.56s-.26 1.27-6.34.26-7.85-4-13.17-2.28-7.09 4.56-8.36 5.06l-1.27.51s4.82 6.59 7.6 11.15 6.6 4.56 9.6 2.74 8.61-10.89 9.63-12.92z" fill="#263238" stroke="#263238" stroke-linecap="round" stroke-linejoin="round"/><path d="M249.16 229.08s-2.25 1.53-6.73.78-5.78-3-9.7-1.68-5.94 2.31-6.87 2.68a9.51 9.51 0 00-2 1.26 48.56 48.56 0 015.07 6.59c2 3.36 6.87 4.12 9.11 2.81s6.66-7 7.41-8.49 3.71-3.95 3.71-3.95z" fill="#fff" stroke="#263238" stroke-linecap="round" stroke-linejoin="round"/><path d="M205.34 266.58c-.76-.26-3.55-8.36-14.7-12.16s-17.48 3-23 12.66-11.65 27.11-16 35.72S139 317 138.71 328.14s4.82 18 11.15 17.48 11.4-7.6 20.77-20.52 18.49-35.72 18.49-35.72" fill="#fff"/><g clip-path="url(#freepik--clip-path-8--inject-162)"><path d="M205.34 266.58c-.76-.26-3.55-8.36-14.7-12.16s-17.47 3-23 12.66a138.39 138.39 0 00-6.75 14.18c7.59-6.69 15.61-9.49 25.12-7.45a25 25 0 0110.36 5.45z" fill="#ff0"/><path d="M205.34 266.58c-.76-.26-3.55-8.36-14.7-12.16s-17.47 3-23 12.66a138.39 138.39 0 00-6.75 14.18c7.59-6.69 15.61-9.49 25.12-7.45a25 25 0 0110.36 5.45z" fill="#fff" opacity=".5"/></g><path d="M205.34 266.58c-.76-.26-3.55-8.36-14.7-12.16s-17.48 3-23 12.66-11.65 27.11-16 35.72S139 317 138.71 328.14s4.82 18 11.15 17.48 11.4-7.6 20.77-20.52 18.49-35.72 18.49-35.72" fill="none" stroke="#263238" stroke-linecap="round" stroke-linejoin="round"/><path d="M172 323.14a70.82 70.82 0 00-6.17-9.19A28 28 0 00151 304c-4.44 7.93-12 13.5-12.26 24.11-.25 11.14 4.82 18 11.15 17.48s11.4-7.6 20.77-20.52c.43-.6.88-1.26 1.34-1.93z" fill="#fff" stroke="#263238" stroke-linecap="round" stroke-linejoin="round"/><rect x="139.22" y="152.83" width="47.63" height="83.6" rx="2.27" fill="#ff0" stroke="#263238" stroke-linecap="round" stroke-linejoin="round"/><path fill="none" stroke="#fff" stroke-linecap="round" stroke-linejoin="round" d="M184.71 198.07v6.36m-6.37-49.58h4.1a2.27 2.27 0 012.27 2.27v36.4m-15.92-38.67h4.55"/><path d="M152.39 162a4.05 4.05 0 10-4 4.06 4 4 0 004-4.06z" fill="#263238"/><path d="M142.77 189.06s-9.12 11.65-15.71 17.48-2.28 10.29 0 15.11 6.33 30.74 7.6 39.86-3.29 38.51-4.56 55.23 9.37 31.41 14.44 33.94 8.36-1 14.19-12.66.76-24.58-2.54-39-9.37-38-9.37-38 5.32-1.52 5.83-6.58-1.52-12.92-1.52-12.92 15.45.25 21.53-.76 12.66-2.54 8.1-3.55-8.61 0-17.73-.51a35.78 35.78 0 01-16.25-5.3 35 35 0 0113.7-3.32c6.78-.31 14.21 1.46 18.26.6 3.81-.8 6.54-2.09 5-3.61s-4.33-1-10-2c-3.36-.57-8.65-3.59-13.65-3.61a46.29 46.29 0 00-13 2.05c-1 0 6.41-6.63 9.45-7.39s13.35 3.08 17.66 3.08 9.37-1.52 9.62-3.29 1.78-2.54-4.05-2.79-14.44-3.55-19.5-5.32-8.62-.25-11.66 1.27-10.64 4.3-10.64 4.3l9.72-12.62s10.55 4.52 16.63 4.26 13.43-4.56 10.89-5.82-8.1-.51-17.48-3.3-11.42-7.62-14.96-4.83z" fill="#fff"/><g clip-path="url(#freepik--clip-path-9--inject-162)"><path d="M127.06 221.65c2.28 4.81 6.33 30.74 7.6 39.86s-3.29 38.51-4.56 55.23 9.37 31.41 14.44 33.94c4.84 2.42 8.07-.73 13.43-11.18-.66.73-1.44 1.54-2.37 2.47-5.5 5.51-9.63 6.42-13.75-6.42s-1.84-55.48-2.75-68.32a150.23 150.23 0 01.46-24.76s-.34-8.56-6.88-18.34-5.62-17.59-5.62-17.59c-6.59 5.83-2.28 10.29 0 15.11z" fill="#ff0"/><path d="M127.06 221.65c2.28 4.81 6.33 30.74 7.6 39.86s-3.29 38.51-4.56 55.23 9.37 31.41 14.44 33.94c4.84 2.42 8.07-.73 13.43-11.18-.66.73-1.44 1.54-2.37 2.47-5.5 5.51-9.63 6.42-13.75-6.42s-1.84-55.48-2.75-68.32a150.23 150.23 0 01.46-24.76s-.34-8.56-6.88-18.34-5.62-17.59-5.62-17.59c-6.59 5.83-2.28 10.29 0 15.11z" fill="#fff" opacity=".5"/></g><path d="M142.77 189.06s-9.12 11.65-15.71 17.48-2.28 10.29 0 15.11 6.33 30.74 7.6 39.86-3.29 38.51-4.56 55.23 9.37 31.41 14.44 33.94 8.36-1 14.19-12.66.76-24.58-2.54-39-9.37-38-9.37-38 5.32-1.52 5.83-6.58-1.52-12.92-1.52-12.92 15.45.25 21.53-.76 12.66-2.54 8.1-3.55-8.61 0-17.73-.51a35.78 35.78 0 01-16.25-5.3 35 35 0 0113.7-3.32c6.78-.31 14.21 1.46 18.26.6 3.81-.8 6.54-2.09 5-3.61s-4.33-1-10-2c-3.36-.57-8.65-3.59-13.65-3.61a46.29 46.29 0 00-13 2.05c-1 0 6.41-6.63 9.45-7.39s13.35 3.08 17.66 3.08 9.37-1.52 9.62-3.29 1.78-2.54-4.05-2.79-14.44-3.55-19.5-5.32-8.62-.25-11.66 1.27-10.64 4.3-10.64 4.3l9.72-12.62s10.55 4.52 16.63 4.26 13.43-4.56 10.89-5.82-8.1-.51-17.48-3.3-11.42-7.62-14.96-4.83z" fill="none" stroke="#263238" stroke-linecap="round" stroke-linejoin="round"/><path fill="#fff" stroke="#263238" stroke-linecap="round" stroke-linejoin="round" d="M151.13 241.5h-6.84"/></g></svg>